<svg width="18" height="18" viewBox="0 0 18 18" fill="none" xmlns="http://www.w3.org/2000/svg">
<path d="M6.24984 9.00008C6.24984 10.3834 7.3665 11.5001 8.74984 11.5001C10.1332 11.5001 11.2498 10.3834 11.2498 9.00008C11.2498 7.61675 10.1332 6.50008 8.74984 6.50008C7.3665 6.50008 6.24984 7.61675 6.24984 9.00008Z" fill="#334155"/>
<path d="M5.4165 7.33342V5.66675H2.9915C4.1415 3.67508 6.2915 2.33341 8.74984 2.33341C11.8498 2.33341 14.4582 4.46675 15.1998 7.33342H16.9165C16.1415 3.53341 12.7832 0.666748 8.74984 0.666748C6.02484 0.666748 3.59984 1.98341 2.08317 4.00841V2.33341H0.416504V7.33342H5.4165Z" fill="#334155"/>
<path d="M12.0832 10.6667V12.3334H14.5082C13.3582 14.3251 11.2082 15.6667 8.74984 15.6667C5.64984 15.6667 3.0415 13.5334 2.29984 10.6667H0.583171C1.35817 14.4667 4.7165 17.3334 8.74984 17.3334C11.4748 17.3334 13.8998 16.0167 15.4165 13.9917V15.6667H17.0832V10.6667H12.0832Z" fill="#334155"/>
</svg>
