<svg width="19" height="18" viewBox="0 0 19 18" fill="none" xmlns="http://www.w3.org/2000/svg">
<path d="M9.50016 12.85C11.1202 12.85 12.4335 11.5367 12.4335 9.91667C12.4335 8.29663 11.1202 6.98333 9.50016 6.98333C7.88013 6.98333 6.56683 8.29663 6.56683 9.91667C6.56683 11.5367 7.88013 12.85 9.50016 12.85Z" fill="#F1F9F9"/>
<path d="M6.75016 0.75L5.07266 2.58333H2.16683C1.1585 2.58333 0.333496 3.40833 0.333496 4.41667V15.4167C0.333496 16.425 1.1585 17.25 2.16683 17.25H16.8335C17.8418 17.25 18.6668 16.425 18.6668 15.4167V4.41667C18.6668 3.40833 17.8418 2.58333 16.8335 2.58333H13.9277L12.2502 0.75H6.75016ZM9.50016 14.5C6.97016 14.5 4.91683 12.4467 4.91683 9.91667C4.91683 7.38667 6.97016 5.33333 9.50016 5.33333C12.0302 5.33333 14.0835 7.38667 14.0835 9.91667C14.0835 12.4467 12.0302 14.5 9.50016 14.5Z" fill="#F1F9F9"/>
</svg>
