<svg width="12" height="12" viewBox="0 0 12 12" fill="none" xmlns="http://www.w3.org/2000/svg">
<path d="M5.41675 3.08335H6.58341V4.25002H5.41675V3.08335ZM5.41675 5.41669H6.58341V8.91669H5.41675V5.41669ZM6.00008 0.166687C2.78008 0.166687 0.166748 2.78002 0.166748 6.00002C0.166748 9.22002 2.78008 11.8334 6.00008 11.8334C9.22008 11.8334 11.8334 9.22002 11.8334 6.00002C11.8334 2.78002 9.22008 0.166687 6.00008 0.166687ZM6.00008 10.6667C3.42758 10.6667 1.33341 8.57252 1.33341 6.00002C1.33341 3.42752 3.42758 1.33335 6.00008 1.33335C8.57258 1.33335 10.6667 3.42752 10.6667 6.00002C10.6667 8.57252 8.57258 10.6667 6.00008 10.6667Z" fill="#64748B"/>
</svg>
