<svg width="17" height="16" viewBox="0 0 17 16" fill="none" xmlns="http://www.w3.org/2000/svg">
<path d="M15.1665 2.16667H12.5248L10.9998 0.5H5.99984L4.47484 2.16667H1.83317C0.916504 2.16667 0.166504 2.91667 0.166504 3.83333V13.8333C0.166504 14.75 0.916504 15.5 1.83317 15.5H15.1665C16.0832 15.5 16.8332 14.75 16.8332 13.8333V3.83333C16.8332 2.91667 16.0832 2.16667 15.1665 2.16667ZM8.49984 13C6.19984 13 4.33317 11.1333 4.33317 8.83333H2.6665L4.74984 6.75L6.83317 8.83333H5.1665C5.1665 10.675 6.65817 12.1667 8.49984 12.1667C8.98317 12.1667 9.4415 12.0583 9.84984 11.875L10.4665 12.4917C9.87484 12.8 9.2165 13 8.49984 13ZM12.2498 10.9167L10.1665 8.83333H11.8332C11.8332 6.99167 10.3415 5.5 8.49984 5.5C8.0165 5.5 7.55817 5.60833 7.14984 5.79167L6.53317 5.18333C7.12484 4.86667 7.78317 4.66667 8.49984 4.66667C10.7998 4.66667 12.6665 6.53333 12.6665 8.83333H14.3332L12.2498 10.9167Z" fill="#F1F8F3"/>
</svg>
