<svg width="24" height="24" viewBox="0 0 24 24" fill="none" xmlns="http://www.w3.org/2000/svg">
<path d="M4.51991 5.93401L1.39291 2.80801L2.80791 1.39301L22.6069 21.193L21.1919 22.607L17.8819 19.297C16.1231 20.4126 14.0826 21.0033 11.9999 21C6.60791 21 2.12191 17.12 1.18091 12C1.61094 9.67072 2.78254 7.5429 4.52091 5.93401H4.51991ZM14.7569 16.172L13.2929 14.708C12.733 14.9759 12.1037 15.0635 11.4918 14.9588C10.88 14.854 10.3157 14.5621 9.87678 14.1231C9.43785 13.6842 9.14588 13.1199 9.04112 12.5081C8.93637 11.8962 9.02399 11.267 9.29191 10.707L7.82791 9.24301C7.19162 10.2045 6.90718 11.3563 7.02274 12.5035C7.1383 13.6507 7.64676 14.7226 8.46203 15.5379C9.27729 16.3532 10.3493 16.8616 11.4964 16.9772C12.6436 17.0927 13.7954 16.8083 14.7569 16.172ZM7.97391 3.76001C9.22091 3.27001 10.5799 3.00001 11.9999 3.00001C17.3919 3.00001 21.8779 6.88001 22.8189 12C22.5125 13.6657 21.8238 15.2376 20.8069 16.592L16.9469 12.732C17.0616 11.9596 16.9937 11.1711 16.7488 10.4297C16.5039 9.68821 16.0888 9.01442 15.5366 8.46227C14.9845 7.91013 14.3107 7.49498 13.5693 7.25008C12.8278 7.00518 12.0393 6.93735 11.2669 7.05201L7.97391 3.76101V3.76001Z" fill="currentColor"/>
</svg>
