<svg width="20" height="20" viewBox="0 0 20 20" fill="none" xmlns="http://www.w3.org/2000/svg">
<path d="M10.8668 9.24992C9.3835 8.75825 8.66683 8.44992 8.66683 7.66658C8.66683 6.81658 9.59183 6.50825 10.1752 6.50825C11.2668 6.50825 11.6668 7.33325 11.7585 7.62492L13.0752 7.06658C12.9502 6.69158 12.3918 5.46658 10.9585 5.19992V4.16658H9.29183V5.21659C7.22516 5.68325 7.21683 7.59992 7.21683 7.68325C7.21683 9.57492 9.09183 10.1083 10.0085 10.4416C11.3252 10.9083 11.9085 11.3333 11.9085 12.1333C11.9085 13.0749 11.0335 13.4749 10.2585 13.4749C8.74183 13.4749 8.3085 11.9166 8.2585 11.7333L6.87516 12.2916C7.40016 14.1166 8.77516 14.6082 9.29183 14.7583V15.8333H10.9585V14.7999C11.2918 14.7249 13.3752 14.3083 13.3752 12.1166C13.3752 10.9583 12.8668 9.94158 10.8668 9.24992ZM2.62516 17.4999H0.958496V12.4999H5.9585V14.1666H3.89183C5.2335 16.1749 7.52516 17.4999 10.1252 17.4999C14.2668 17.4999 17.6252 14.1416 17.6252 9.99992H19.2918C19.2918 15.0666 15.1918 19.1666 10.1252 19.1666C7.02516 19.1666 4.2835 17.6249 2.62516 15.2749V17.4999ZM0.958496 9.99992C0.958496 4.93325 5.0585 0.833252 10.1252 0.833252C13.2252 0.833252 15.9668 2.37492 17.6252 4.72492V2.49992H19.2918V7.49992H14.2918V5.83325H16.3585C15.0168 3.82492 12.7252 2.49992 10.1252 2.49992C5.9835 2.49992 2.62516 5.85825 2.62516 9.99992H0.958496Z" fill="#94A3B8"/>
</svg>
