<svg width="14" height="18" viewBox="0 0 14 18" fill="none" xmlns="http://www.w3.org/2000/svg">
<path d="M12 6.08333H11.1666V4.41667C11.1666 2.11667 9.29998 0.25 6.99998 0.25C4.69998 0.25 2.83331 2.11667 2.83331 4.41667V6.08333H1.99998C1.08331 6.08333 0.333313 6.83333 0.333313 7.75V16.0833C0.333313 17 1.08331 17.75 1.99998 17.75H12C12.9166 17.75 13.6666 17 13.6666 16.0833V7.75C13.6666 6.83333 12.9166 6.08333 12 6.08333ZM6.99998 13.5833C6.08331 13.5833 5.33331 12.8333 5.33331 11.9167C5.33331 11 6.08331 10.25 6.99998 10.25C7.91665 10.25 8.66665 11 8.66665 11.9167C8.66665 12.8333 7.91665 13.5833 6.99998 13.5833ZM9.58331 6.08333H4.41665V4.41667C4.41665 2.99167 5.57498 1.83333 6.99998 1.83333C8.42498 1.83333 9.58331 2.99167 9.58331 4.41667V6.08333Z" fill="#1E293B"/>
</svg>
