<svg width="16" height="16" viewBox="0 0 16 16" fill="none" xmlns="http://www.w3.org/2000/svg">
<path d="M0.375 7.16667H7.04167V0.5H0.375V7.16667ZM2.04167 2.16667H5.375V5.5H2.04167V2.16667Z" fill="#94A3B8"/>
<path d="M0.375 15.5H7.04167V8.83333H0.375V15.5ZM2.04167 10.5H5.375V13.8333H2.04167V10.5Z" fill="#94A3B8"/>
<path d="M8.70833 0.5V7.16667H15.375V0.5H8.70833ZM13.7083 5.5H10.375V2.16667H13.7083V5.5Z" fill="#94A3B8"/>
<path d="M15.375 13.8333H13.7083V15.5H15.375V13.8333Z" fill="#94A3B8"/>
<path d="M10.375 8.83333H8.70833V10.5H10.375V8.83333Z" fill="#94A3B8"/>
<path d="M12.0417 10.5H10.375V12.1667H12.0417V10.5Z" fill="#94A3B8"/>
<path d="M10.375 12.1667H8.70833V13.8333H10.375V12.1667Z" fill="#94A3B8"/>
<path d="M12.0417 13.8333H10.375V15.5H12.0417V13.8333Z" fill="#94A3B8"/>
<path d="M13.7083 12.1667H12.0417V13.8333H13.7083V12.1667Z" fill="#94A3B8"/>
<path d="M13.7083 8.83333H12.0417V10.5H13.7083V8.83333Z" fill="#94A3B8"/>
<path d="M15.375 10.5H13.7083V12.1667H15.375V10.5Z" fill="#94A3B8"/>
</svg>
