<svg width="17" height="18" viewBox="0 0 17 18" fill="none" xmlns="http://www.w3.org/2000/svg">
<path d="M8.37484 0.666748C3.77484 0.666748 0.0415039 4.40008 0.0415039 9.00008C0.0415039 13.6001 3.77484 17.3334 8.37484 17.3334C12.9748 17.3334 16.7082 13.6001 16.7082 9.00008C16.7082 4.40008 12.9748 0.666748 8.37484 0.666748ZM11.3832 5.95008C12.2748 5.95008 12.9915 6.66675 12.9915 7.55842C12.9915 8.45008 12.2748 9.16675 11.3832 9.16675C10.4915 9.16675 9.77484 8.45008 9.77484 7.55842C9.7665 6.66675 10.4915 5.95008 11.3832 5.95008ZM6.38317 4.63341C7.4665 4.63341 8.34984 5.51675 8.34984 6.60008C8.34984 7.68341 7.4665 8.56675 6.38317 8.56675C5.29984 8.56675 4.4165 7.68341 4.4165 6.60008C4.4165 5.50841 5.2915 4.63341 6.38317 4.63341ZM6.38317 12.2417V15.3667C4.38317 14.7417 2.79984 13.2001 2.09984 11.2334C2.97484 10.3001 5.15817 9.82508 6.38317 9.82508C6.82484 9.82508 7.38317 9.89175 7.9665 10.0084C6.59984 10.7334 6.38317 11.6917 6.38317 12.2417ZM8.37484 15.6667C8.14984 15.6667 7.93317 15.6584 7.7165 15.6334V12.2417C7.7165 11.0584 10.1665 10.4667 11.3832 10.4667C12.2748 10.4667 13.8165 10.7917 14.5832 11.4251C13.6082 13.9001 11.1998 15.6667 8.37484 15.6667Z" fill="#94A3B8"/>
</svg>
