<svg width="17" height="16" viewBox="0 0 17 16" fill="none" xmlns="http://www.w3.org/2000/svg">
<path d="M15.7085 13V13.8333C15.7085 14.75 14.9585 15.5 14.0418 15.5H2.37516C1.45016 15.5 0.708496 14.75 0.708496 13.8333V2.16667C0.708496 1.25 1.45016 0.5 2.37516 0.5H14.0418C14.9585 0.5 15.7085 1.25 15.7085 2.16667V3H8.2085C7.2835 3 6.54183 3.75 6.54183 4.66667V11.3333C6.54183 12.25 7.2835 13 8.2085 13H15.7085ZM8.2085 11.3333H16.5418V4.66667H8.2085V11.3333ZM11.5418 9.25C10.8502 9.25 10.2918 8.69167 10.2918 8C10.2918 7.30833 10.8502 6.75 11.5418 6.75C12.2335 6.75 12.7918 7.30833 12.7918 8C12.7918 8.69167 12.2335 9.25 11.5418 9.25Z" fill="#94A3B8"/>
</svg>
