<svg width="63" height="62" viewBox="0 0 63 62" fill="none" xmlns="http://www.w3.org/2000/svg">
<path d="M46.5238 51.6667H10.3571V15.5H33.6071V10.3333H10.3571C7.51543 10.3333 5.19043 12.6583 5.19043 15.5V51.6667C5.19043 54.5083 7.51543 56.8333 10.3571 56.8333H46.5238C49.3654 56.8333 51.6904 54.5083 51.6904 51.6667V28.4167H46.5238V51.6667ZM26.3996 43.4775L21.3363 37.3808L14.2321 46.5H42.6488L33.5038 34.3325L26.3996 43.4775ZM51.6904 10.3333V2.58334H46.5238V10.3333H38.7738C38.7996 10.3592 38.7738 15.5 38.7738 15.5H46.5238V23.2242C46.5496 23.25 51.6904 23.2242 51.6904 23.2242V15.5H59.4404V10.3333H51.6904Z" fill="#4864E6"/>
</svg>
