<svg width="90" height="90" viewBox="0 0 90 90" fill="none" xmlns="http://www.w3.org/2000/svg">
<path d="M80.5795 70.6345C80.1084 70.2921 79.4489 70.3969 79.1065 70.868L74.4592 77.2654L71.061 72.9668C70.6996 72.5098 70.0362 72.4321 69.5795 72.7935C69.1224 73.1549 69.0447 73.8183 69.4062 74.275L73.6671 79.6651C73.8675 79.9186 74.1723 80.0659 74.4947 80.0659H74.5161C74.8462 80.0592 75.1538 79.8982 75.3479 79.6314L80.8129 72.1086C81.1554 71.6365 81.051 70.977 80.5795 70.6345V70.6345Z" fill="#364156"/>
<path d="M75.0971 63.2417C68.486 63.2417 63.1074 68.6283 63.1074 75.2493C63.1074 81.8703 68.486 87.2566 75.0971 87.2566C81.7083 87.2566 87.0868 81.8703 87.0868 75.2493C87.0868 68.6283 81.7083 63.2417 75.0971 63.2417ZM75.0971 85.1472C69.649 85.1472 65.2168 80.707 65.2168 75.2493C65.2168 69.7917 69.649 65.3511 75.0971 65.3511C80.5453 65.3511 84.9774 69.7913 84.9774 75.2493C84.9774 80.7073 80.5449 85.1472 75.0971 85.1472Z" fill="#364156"/>
<path d="M5.02246 22.4632V9.83053C5.02246 7.08553 7.24293 4.85205 9.97246 4.85205H22.5457C23.9404 4.85205 23.9421 2.74268 22.5457 2.74268H9.97246C6.07996 2.74268 2.91309 5.92221 2.91309 9.83053V22.4632C2.91309 23.8582 5.02246 23.8596 5.02246 22.4632V22.4632Z" fill="#364156"/>
<path d="M22.5457 69.8413H9.97246C7.24293 69.8413 5.02246 67.6079 5.02246 64.8629V52.2291C5.02246 50.8352 2.91309 50.8324 2.91309 52.2291V64.8629C2.91309 68.7712 6.07996 71.9507 9.97246 71.9507H22.5457C23.9404 71.9507 23.9421 69.8413 22.5457 69.8413Z" fill="#364156"/>
<path d="M52.1714 4.8524H64.7457C67.4752 4.8524 69.6961 7.08588 69.6961 9.83088V22.4636C69.6961 23.8582 71.8054 23.86 71.8054 22.4636V9.83053C71.8054 5.92221 68.6386 2.74268 64.7457 2.74268H52.1714C50.7771 2.74303 50.7753 4.8524 52.1714 4.8524Z" fill="#364156"/>
<path d="M58.5046 69.8408H52.1726C50.778 69.8408 50.7762 71.9502 52.1726 71.9502H58.5046C59.8993 71.9502 59.901 69.8408 58.5046 69.8408Z" fill="#364156"/>
<path d="M69.6963 52.2288V58.6304C69.6963 60.025 71.8057 60.0268 71.8057 58.6304V52.2288C71.8057 50.8345 69.6963 50.832 69.6963 52.2288Z" fill="#364156"/>
<path d="M48.6772 50.9888C46.2297 50.9888 44.7348 49.6209 44.2254 46.9262C45.6759 45.5888 46.8976 43.9695 47.8008 42.1625C50.5581 36.657 49.6588 36.4756 50.4062 36.0643L50.4038 36.0597C52.529 35.0739 51.8167 32.6144 51.9471 32.0589C51.9471 30.8014 51.7154 30.3503 51.0784 29.983C52.0459 27.2102 51.8452 23.909 50.4815 20.7534C46.6037 11.7787 34.3497 7.24319 29.9425 15.7106C27.9913 15.5633 25.0972 16.2998 24.1051 19.9789C23.1056 23.6851 23.5897 28.2114 23.8408 29.9678C23.2473 30.4463 22.7717 31.2222 22.7717 32.0698C22.9049 32.6366 22.1951 35.0775 24.3147 36.0604L24.3122 36.0653C25.0638 36.4774 25.7329 42.5351 30.4937 46.9272C29.9843 49.6216 28.4895 50.9892 26.0422 50.9892C16.9325 50.9892 12.5746 56.154 13.0668 62.4818C13.1315 63.9017 15.2848 63.7579 15.1691 62.3119C15.1199 61.6939 14.987 58.4891 17.2099 56.0819C18.5318 54.6503 20.4549 53.7321 22.9415 53.3316C24.257 54.8047 28.763 59.0055 37.3597 59.0055C45.9565 59.0055 50.4628 54.8047 51.778 53.3316C54.2646 53.7321 56.1873 54.6503 57.5095 56.0819C59.7325 58.4891 59.5992 61.6939 59.5504 62.3119C59.435 63.7579 61.588 63.9017 61.6527 62.4818C62.1241 56.4226 58.1016 50.9888 48.6772 50.9888V50.9888ZM26.1417 20.528C26.7559 18.2506 28.5724 17.4884 30.3204 17.8959C30.8544 18.0274 31.4 17.7261 31.5734 17.204C33.7618 10.6129 44.7788 12.8717 48.5454 21.5901C49.5234 23.8538 49.8065 26.1798 49.3856 28.2209C48.6614 27.2098 47.6876 25.8609 46.6818 24.5046C44.3576 21.37 40.1888 20.2447 36.7698 21.8285C36.1177 22.1305 35.4065 22.1213 34.8183 21.8035C32.6439 20.6289 30.5932 20.5804 28.8878 21.6625C27.4597 22.5706 26.082 24.8906 26.1533 27.3817C26.1656 27.8166 26.0475 28.2083 25.7947 28.5619C25.5834 26.5651 25.4105 23.2389 26.1417 20.528V20.528ZM28.8041 41.2178C25.9663 35.5517 27.1838 35.2342 25.3265 34.2158C25.1099 34.0973 24.8807 33.9152 24.8807 33.673C24.8807 31.398 24.771 31.9246 25.569 31.4029C25.6014 31.3664 28.3425 30.1658 28.2613 27.322C28.1973 25.0804 29.8651 21.5261 33.8153 23.6598C34.9944 24.2968 36.3943 24.327 37.6561 23.7427C40.1726 22.5773 43.2558 23.426 44.9876 25.761C50.1478 32.7202 48.4185 30.9396 49.836 31.7084C49.8395 31.868 49.8381 32.2488 49.8381 33.673C49.8381 34.2938 48.3299 34.3272 47.9499 36.1634C47.734 37.2244 46.9926 39.0666 45.9147 41.2185C44.8906 43.2668 43.4066 45.04 41.6228 46.3464C40.5178 47.1561 40.2777 47.1536 38.4077 47.1339C34.5075 47.0932 34.5096 47.3821 33.0963 46.3461C31.3125 45.04 29.8286 43.2667 28.8041 41.2178V41.2178ZM37.3594 56.8958C31.3586 56.8958 27.6274 54.6725 25.7402 53.1028C29.2685 53.0606 31.3677 51.4367 32.3053 48.3633C33.674 49.2605 34.5107 49.2623 36.3325 49.243C39.859 49.2057 40.7094 49.4855 42.4131 48.3637C43.3374 51.3924 45.5529 53.0978 48.6769 53.0978C48.7729 53.0978 48.8657 53.101 48.9602 53.1024C47.0586 54.6707 43.312 56.8958 37.3594 56.8958V56.8958Z" fill="#364156"/>
</svg>
