<svg width="68" height="68" viewBox="0 0 68 68" fill="none" xmlns="http://www.w3.org/2000/svg">
<path d="M33.9986 0C15.2234 0 0 15.2234 0 33.9986C0 52.7738 15.2234 68 33.9986 68C52.7738 68 68 52.7738 68 33.9986C68 15.2234 52.7738 0 33.9986 0ZM41.0763 52.6932C39.3263 53.384 37.9332 53.9078 36.8884 54.2705C35.8464 54.6331 34.6347 54.8145 33.256 54.8145C31.1375 54.8145 29.4883 54.2964 28.3139 53.2631C27.1396 52.2298 26.5553 50.9201 26.5553 49.3284C26.5553 48.7096 26.5984 48.0764 26.6848 47.4316C26.774 46.7869 26.915 46.0615 27.1079 45.247L29.2983 37.5101C29.4911 36.7675 29.6581 36.0623 29.7905 35.4061C29.9229 34.744 29.9862 34.1367 29.9862 33.5841C29.9862 32.5997 29.7818 31.9089 29.376 31.5203C28.9644 31.1318 28.1901 30.9418 27.0359 30.9418C26.4718 30.9418 25.8904 31.0253 25.2946 31.2008C24.7045 31.3822 24.1922 31.5462 23.7719 31.7074L24.3505 29.3242C25.7839 28.7399 27.1568 28.2391 28.4665 27.8246C29.7761 27.4044 31.0138 27.1971 32.1795 27.1971C34.2835 27.1971 35.9069 27.7095 37.0496 28.7226C38.1865 29.7387 38.7593 31.0598 38.7593 32.6832C38.7593 33.0199 38.719 33.6129 38.6413 34.4591C38.5636 35.3082 38.4168 36.0825 38.2038 36.7934L36.0249 44.5073C35.8464 45.1261 35.6881 45.8342 35.5442 46.6257C35.4032 47.4172 35.3341 48.0217 35.3341 48.4275C35.3341 49.4522 35.5615 50.1516 36.022 50.5229C36.4768 50.8942 37.2741 51.0813 38.4024 51.0813C38.9349 51.0813 39.5307 50.9863 40.2042 50.8021C40.872 50.6179 41.3555 50.4538 41.6606 50.3128L41.0763 52.6932ZM40.6906 21.3829C39.6746 22.327 38.4513 22.7991 37.0208 22.7991C35.5931 22.7991 34.3612 22.327 33.3365 21.3829C32.3176 20.4389 31.8024 19.2904 31.8024 17.9491C31.8024 16.6107 32.3205 15.4594 33.3365 14.5067C34.3612 13.5511 35.5931 13.0761 37.0208 13.0761C38.4513 13.0761 39.6775 13.5511 40.6906 14.5067C41.7067 15.4594 42.2161 16.6107 42.2161 17.9491C42.2161 19.2933 41.7067 20.4389 40.6906 21.3829Z" fill="#006EF8"/>
</svg>
