<svg width="86" height="86" viewBox="0 0 86 86" fill="none" xmlns="http://www.w3.org/2000/svg">
<path d="M73.0974 61.2422C66.4863 61.2422 61.1077 66.6288 61.1077 73.2498C61.1077 79.8708 66.4863 85.2571 73.0974 85.2571C79.7086 85.2571 85.0871 79.8708 85.0871 73.2498C85.0871 66.6288 79.7086 61.2422 73.0974 61.2422ZM73.0974 83.1477C67.6493 83.1477 63.2171 78.7075 63.2171 73.2498C63.2171 67.7921 67.6493 63.3516 73.0974 63.3516C78.5456 63.3516 82.9777 67.7918 82.9777 73.2498C82.9777 78.7078 78.5452 83.1477 73.0974 83.1477Z" fill="#364156"/>
<path d="M3.02246 20.4627V7.83004C3.02246 5.08504 5.24293 2.85156 7.97246 2.85156H20.5457C21.9404 2.85156 21.9421 0.742188 20.5457 0.742188H7.97246C4.07996 0.742188 0.913086 3.92172 0.913086 7.83004V20.4627C0.913086 21.8577 3.02246 21.8591 3.02246 20.4627V20.4627Z" fill="#364156"/>
<path d="M20.5457 67.8423H7.97246C5.24293 67.8423 3.02246 65.6088 3.02246 62.8638V50.2301C3.02246 48.8362 0.913086 48.8334 0.913086 50.2301V62.8638C0.913086 66.7722 4.07996 69.9517 7.97246 69.9517H20.5457C21.9404 69.9517 21.9421 67.8423 20.5457 67.8423Z" fill="#364156"/>
<path d="M50.1717 2.85191H62.746C65.4755 2.85191 67.6964 5.08539 67.6964 7.83039V20.4631C67.6964 21.8577 69.8057 21.8595 69.8057 20.4631V7.83004C69.8057 3.92172 66.6389 0.742188 62.746 0.742188H50.1717C48.7774 0.742539 48.7756 2.85191 50.1717 2.85191Z" fill="#364156"/>
<path d="M56.5042 67.8398H50.1722C48.7775 67.8398 48.7758 69.9492 50.1722 69.9492H56.5042C57.8988 69.9492 57.9006 67.8398 56.5042 67.8398Z" fill="#364156"/>
<path d="M67.6963 50.2263V56.6279C67.6963 58.0226 69.8057 58.0243 69.8057 56.6279V50.2263C69.8057 48.832 67.6963 48.8296 67.6963 50.2263Z" fill="#364156"/>
<path d="M46.6774 48.9893C44.2298 48.9893 42.7349 47.6214 42.2255 44.9267C43.6761 43.5893 44.8977 41.97 45.8009 40.163C48.5582 34.6575 47.6589 34.4761 48.4063 34.0648L48.4039 34.0602C50.5291 33.0744 49.8168 30.6149 49.9472 30.0594C49.9472 28.8019 49.7156 28.3508 49.0785 27.9834C50.046 25.2107 49.8453 21.9095 48.4816 18.7539C44.6038 9.77918 32.3498 5.24368 27.9426 13.7111C25.9914 13.5638 23.0974 14.3003 22.1053 17.9794C21.1058 21.6856 21.5899 26.2119 21.8409 27.9683C21.2474 28.4468 20.7718 29.2227 20.7718 30.0703C20.905 30.637 20.1952 33.0779 22.3148 34.0609L22.3123 34.0658C23.064 34.4779 23.733 40.5356 28.4938 44.9277C27.9844 47.6221 26.4896 48.9897 24.0424 48.9897C14.9327 48.9897 10.5747 54.1545 11.0669 60.4822C11.1316 61.9022 13.2849 61.7584 13.1692 60.3124C13.12 59.6944 12.9871 56.4895 15.2101 54.0824C16.5319 52.6508 18.455 51.7326 20.9416 51.3321C22.2571 52.8052 26.7631 57.006 35.3599 57.006C43.9566 57.006 48.4629 52.8052 49.7781 51.3321C52.2647 51.7326 54.1874 52.6508 55.5097 54.0824C57.7326 56.4895 57.5993 59.6944 57.5505 60.3124C57.4352 61.7584 59.5881 61.9022 59.6528 60.4822C60.1243 54.4231 56.1017 48.9893 46.6774 48.9893V48.9893ZM24.1419 18.5285C24.756 16.2511 26.5726 15.4889 28.3205 15.8964C28.8545 16.0279 29.4002 15.7266 29.5735 15.2045C31.762 8.6134 42.7789 10.8722 46.5455 19.5906C47.5236 21.8543 47.8066 24.1802 47.3858 26.2214C46.6615 25.2103 45.6877 23.8614 44.6819 22.505C42.3577 19.3705 38.1889 18.2452 34.7699 19.829C34.1178 20.1309 33.4066 20.1218 32.8184 19.804C30.644 18.6294 28.5933 18.5809 26.8879 19.663C25.4599 20.5711 24.0821 22.8911 24.1535 25.3822C24.1658 25.8171 24.0476 26.2088 23.7949 26.5624C23.5836 24.5656 23.4106 21.2394 24.1419 18.5285V18.5285ZM26.8042 39.2183C23.9664 33.5522 25.1839 33.2347 23.3266 32.2163C23.11 32.0978 22.8808 31.9157 22.8808 31.6734C22.8808 29.3985 22.7711 29.9251 23.5692 29.4034C23.6015 29.3668 26.3426 28.1663 26.2614 25.3225C26.1974 23.0809 27.8652 19.5266 31.8154 21.6602C32.9945 22.2973 34.3945 22.3275 35.6562 21.7432C38.1727 20.5778 41.2559 21.4265 42.9877 23.7615C48.1479 30.7207 46.4186 28.94 47.8361 29.7089C47.8396 29.8685 47.8382 30.2493 47.8382 31.6734C47.8382 32.2943 46.33 32.3277 45.95 34.1639C45.7341 35.2249 44.9927 37.0671 43.9148 39.219C42.8907 41.2672 41.4067 43.0405 39.6229 44.3469C38.5179 45.1566 38.2778 45.1541 36.4079 45.1344C32.5076 45.0936 32.5097 45.3826 31.0965 44.3466C29.3126 43.0405 27.8287 41.2672 26.8042 39.2183V39.2183ZM35.3595 54.8963C29.3587 54.8963 25.6276 52.673 23.7404 51.1033C27.2686 51.0611 29.3678 49.4372 30.3054 46.3638C31.6741 47.261 32.5108 47.2628 34.3326 47.2435C37.8591 47.2062 38.7095 47.486 40.4132 46.3642C41.3375 49.3929 43.553 51.0983 46.677 51.0983C46.773 51.0983 46.8658 51.1015 46.9604 51.1029C45.0588 52.6712 41.3122 54.8963 35.3595 54.8963V54.8963Z" fill="#364156"/>
</svg>
