<svg width="120" height="120" viewBox="0 0 120 120" fill="none" xmlns="http://www.w3.org/2000/svg">
<path d="M17.5557 51.7407V67.765H51.6125V44.6322L40.115 53.9094L28.9214 37.5237L17.5557 51.7407Z" fill="#818999"/>
<path d="M43.327 39.0937C46.2415 39.0937 48.6042 36.731 48.6042 33.8165C48.6042 30.902 46.2415 28.5393 43.327 28.5393C40.4125 28.5393 38.0498 30.902 38.0498 33.8165C38.0498 36.731 40.4125 39.0937 43.327 39.0937Z" fill="#818999"/>
<path d="M95.9213 60.0988L95.5702 60.8543C94.9269 59.7918 94.0276 58.1805 93.0174 56.3713C90.1702 51.27 86.2699 44.2832 82.2313 38.8328L82.1489 38.7267C78.1339 33.7587 73.6726 31.3433 68.5118 31.3433C66.8272 31.3433 65.0619 31.6122 63.2645 32.1423C57.1536 33.944 56.2109 37.8038 56.0895 39.3761C55.8516 42.4085 58.184 48.1085 64.4248 51.0609L64.4298 55.5814C67.5304 54.7498 71.3326 53.0826 71.6372 50.5977C71.8894 48.5411 70.8309 46.5647 68.9569 45.6726C63.3929 43.0328 62.3737 40.7133 62.4616 39.872C62.8527 36.1226 70.728 34.786 77.1365 42.6931C80.9163 47.8064 84.6831 54.5547 87.4359 59.4865C88.3268 61.0827 89.0976 62.4639 89.7388 63.5543L71.449 103.019C69.6485 102.529 68.074 102.311 66.4809 102.311C65.4891 102.311 64.5795 102.393 63.6949 102.473C62.7226 102.561 61.717 102.651 60.4269 102.651C59.569 102.651 58.6753 102.612 57.6938 102.531C51.8665 102.054 42.5199 97.508 38.2456 95.0923C36.1343 93.5381 35.9389 92.533 36.3275 90.4742H29.8706C29.5152 93.5195 30.0419 97.0615 34.6437 100.376L34.782 100.475L34.9299 100.56C36.2991 101.339 48.5544 108.196 57.1714 108.901C58.3283 108.997 59.3934 109.043 60.4269 109.043C62.0045 109.043 63.2069 108.934 64.2773 108.838C65.0831 108.765 65.7783 108.702 66.4817 108.702C67.6397 108.702 69.1125 108.849 72.0196 109.914L72.6446 110.161L72.3172 110.866L88.2135 118.257L111.818 67.4902L95.9213 60.0988Z" fill="#818999"/>
<path d="M61.4555 78.2082V54.0337L59.7399 52.8269C57.8965 51.7356 56.355 50.3994 55.1179 48.9509V71.2252H14.106V17.4435H55.1179V32.4148C56.4198 31.3254 58.1726 30.335 60.5425 29.6365C60.8478 29.5466 61.1517 29.4651 61.4555 29.3885V10.4601C61.4555 5.41735 57.3678 1.32959 52.3251 1.32959H16.899C11.8563 1.32959 7.76855 5.41735 7.76855 10.4601V78.208C7.76855 83.2509 11.8563 87.3389 16.899 87.3389H52.3253C57.368 87.3389 61.4555 83.2509 61.4555 78.2082ZM49.098 9.75139C50.1795 9.75139 51.0559 10.628 51.0559 11.7092C51.0559 12.7907 50.1795 13.6676 49.098 13.6676C48.0166 13.6676 47.1397 12.7907 47.1397 11.7092C47.1397 10.628 48.0166 9.75139 49.098 9.75139ZM26.1382 10.1191H43.0859V13.3167H26.1382V10.1191V10.1191ZM34.612 80.308C32.7282 80.308 31.2014 78.781 31.2014 76.8973C31.2014 75.0139 32.7282 73.4869 34.612 73.4869C36.4957 73.4869 38.0227 75.0139 38.0227 76.8973C38.0227 78.781 36.4957 80.308 34.612 80.308Z" fill="#818999"/>
</svg>
