<svg width="110" height="110" viewBox="0 0 110 110" fill="none" xmlns="http://www.w3.org/2000/svg">
<path d="M91.7854 106.647C83.7051 106.647 77.1313 100.064 77.1313 91.9714C77.1313 83.8791 83.7051 77.2954 91.7854 77.2954C99.8657 77.2954 106.439 83.8791 106.439 91.9714C106.439 100.064 99.8657 106.647 91.7854 106.647ZM91.7854 79.874C85.1265 79.874 79.7095 85.3009 79.7095 91.9718C79.7095 98.6427 85.127 104.07 91.7854 104.07C98.4443 104.07 103.861 98.6427 103.861 91.9718C103.861 85.3009 98.4438 79.874 91.7854 79.874Z" fill="black"/>
<path d="M84.83 90.7808C83.7729 89.444 85.7938 87.843 86.8525 89.1819L91.0059 94.4357L96.6859 86.6167C97.6875 85.2378 99.7749 86.7512 98.7716 88.1317C91.8755 97.3206 92.2176 97.8345 91.0755 97.8577C89.9527 97.8779 90.1271 97.2149 84.83 90.7808Z" fill="black"/>
<path d="M3.5603 27.4554V12.0155C3.5603 7.23863 7.43093 3.35254 12.1884 3.35254H27.5558C29.2599 3.35254 29.2625 5.93066 27.5558 5.93066H12.1884C8.85233 5.93066 6.13843 8.66047 6.13843 12.0155V27.4554C6.13843 29.16 3.5603 29.1622 3.5603 27.4554V27.4554Z" fill="black"/>
<path d="M27.5558 87.9399H12.1884C7.43093 87.9399 3.5603 84.0538 3.5603 79.277V63.8357C3.5603 62.1316 6.13843 62.129 6.13843 63.8357V79.277C6.13843 82.632 8.85233 85.3618 12.1884 85.3618H27.5558C29.2603 85.3618 29.2625 87.9399 27.5558 87.9399Z" fill="black"/>
<path d="M85.1838 27.4554V12.0155C85.1838 8.66047 82.4699 5.93066 79.1338 5.93066H63.7652C62.061 5.93066 62.0584 3.35254 63.7652 3.35254H79.1338C83.8913 3.35254 87.7619 7.23863 87.7619 12.0155V27.4554C87.7619 29.16 85.1838 29.1622 85.1838 27.4554V27.4554Z" fill="black"/>
<path d="M71.5047 87.939H63.7656C62.0615 87.939 62.0589 85.3608 63.7656 85.3608H71.5047C73.2089 85.3608 73.2115 87.939 71.5047 87.939Z" fill="black"/>
<path d="M85.1841 71.6589V63.8347C85.1841 62.1306 87.7622 62.128 87.7622 63.8347V71.6589C87.7622 73.3635 85.1841 73.3656 85.1841 71.6589Z" fill="black"/>
<path d="M41.7159 52.6225C44.9708 50.6606 44.936 48.4494 44.8879 45.3887C44.8664 44.0227 44.8823 45.1408 44.8767 32.3103C44.8767 30.6062 47.4548 30.6036 47.4548 32.3103V44.3343C47.4548 48.3248 47.8566 51.9311 43.0466 54.8307C41.59 55.709 40.2593 53.5008 41.7159 52.6225V52.6225Z" fill="black"/>
<path d="M45.3931 69.8574C39.4445 69.8574 33.3674 67.7661 29.9862 65.2352C28.6211 64.213 30.1654 62.1514 31.5301 63.1706C32.0539 63.5594 44.2363 72.3543 59.907 63.0937C61.3744 62.227 62.688 64.445 61.2185 65.3134C55.3498 68.7814 49.8975 69.8574 45.3931 69.8574V69.8574Z" fill="black"/>
<path d="M29.4702 28.575V22.7136C29.4702 21.0095 32.0483 21.0069 32.0483 22.7136V28.575C32.0483 30.2796 29.4702 30.2817 29.4702 28.575Z" fill="black"/>
<path d="M59.2747 28.575V22.7136C59.2747 21.0095 61.8528 21.0069 61.8528 22.7136V28.575C61.8528 30.2796 59.2747 30.2817 59.2747 28.575Z" fill="black"/>
</svg>
