<svg width="375" height="294" viewBox="0 0 375 294" fill="none" xmlns="http://www.w3.org/2000/svg">
<rect width="375" height="294.001" fill="white"/>
<path d="M175.101 275.872L99.9213 275.716C94.0443 275.654 88.4323 273.261 84.3195 269.063C80.2067 264.865 77.9298 259.205 77.9897 253.328L79.9424 63.4562C80.0036 57.5793 82.3965 51.9672 86.595 47.8544C90.7934 43.7416 96.4535 41.4647 102.33 41.5246L177.511 41.6833C180.421 41.7126 183.296 42.3149 185.974 43.4559C188.651 44.5968 191.077 46.254 193.114 48.3328C195.15 50.4116 196.757 52.8713 197.843 55.5713C198.929 58.2713 199.473 61.1588 199.442 64.0689L197.49 253.943C197.428 259.819 195.035 265.431 190.837 269.544C186.638 273.656 180.978 275.932 175.101 275.872V275.872Z" fill="#101342"/>
<path d="M175.026 269.389L100.131 269.232C98.1328 269.212 96.158 268.798 94.3198 268.014C92.4815 267.23 90.8157 266.091 89.4177 264.663C88.0198 263.235 86.9169 261.545 86.1723 259.691C85.4277 257.836 85.0559 255.853 85.0781 253.855L87.0308 64.4543C87.0727 60.4207 88.715 56.5688 91.5965 53.7459C94.478 50.923 98.3627 49.3602 102.396 49.4012L177.293 49.555C181.328 49.5981 185.18 51.2419 188.002 54.1248C190.824 57.0076 192.386 60.8935 192.344 64.9278L190.391 254.343C190.347 258.375 188.704 262.225 185.822 265.046C182.941 267.867 179.058 269.429 175.026 269.389V269.389Z" fill="white"/>
<path d="M184.894 252.375C184.86 254.83 183.851 257.17 182.092 258.882C180.332 260.594 177.964 261.537 175.509 261.504L99.0669 261.062C96.6116 261.027 94.2705 260.019 92.5586 258.258C90.8467 256.498 89.904 254.129 89.9379 251.674L90.2357 230.438L92.5301 66.4087C92.547 65.1932 92.8032 63.9929 93.284 62.8763C93.7648 61.7598 94.4608 60.7489 95.3324 59.9014C96.2039 59.0539 97.2338 58.3864 98.3634 57.937C99.4929 57.4876 100.7 57.2651 101.915 57.2822L113.908 57.4482L113.881 59.3203C113.867 60.1407 114.015 60.9556 114.317 61.7186C114.619 62.4815 115.068 63.1774 115.639 63.7663C116.21 64.3552 116.892 64.8256 117.646 65.1505C118.399 65.4753 119.209 65.6483 120.029 65.6594L162.257 65.6057C163.076 65.617 163.888 65.4669 164.648 65.1641C165.409 64.8613 166.102 64.4117 166.688 63.8409C167.274 63.2701 167.743 62.5894 168.066 61.8376C168.389 61.0858 168.561 60.2777 168.572 59.4595L168.596 57.6141L178.36 57.7484C180.813 57.7831 183.151 58.7901 184.862 60.548C186.573 62.306 187.516 64.6711 187.484 67.1239L185.19 231.209L184.894 252.375Z" fill="#BBB5B4"/>
<path d="M139.149 187.64C165.29 187.64 186.481 166.449 186.481 140.308C186.481 114.168 165.29 92.9766 139.149 92.9766C113.009 92.9766 91.8174 114.168 91.8174 140.308C91.8174 166.449 113.009 187.64 139.149 187.64Z" fill="white"/>
<path d="M149.713 161.388L172.907 167.525L180.252 183.149L138.405 182.541L96.5576 181.933L104.354 166.529L127.713 161.068" fill="#00205C"/>
<path d="M149.46 121.013C153.901 121.013 157.502 117.412 157.502 112.971C157.502 108.529 153.901 104.928 149.46 104.928C145.018 104.928 141.417 108.529 141.417 112.971C141.417 117.412 145.018 121.013 149.46 121.013Z" fill="#00205C"/>
<path d="M139.566 119.468C144.008 119.468 147.609 115.868 147.609 111.426C147.609 106.984 144.008 103.383 139.566 103.383C135.125 103.383 131.524 106.984 131.524 111.426C131.524 115.868 135.125 119.468 139.566 119.468Z" fill="#00205C"/>
<path d="M155.305 146.467C159.211 146.467 162.377 143.301 162.377 139.396C162.377 135.49 159.211 132.324 155.305 132.324C151.4 132.324 148.234 135.49 148.234 139.396C148.234 143.301 151.4 146.467 155.305 146.467Z" fill="#00205C"/>
<path d="M156.294 155.723C160.2 155.723 163.366 152.557 163.366 148.651C163.366 144.746 160.2 141.58 156.294 141.58C152.389 141.58 149.223 144.746 149.223 148.651C149.223 152.557 152.389 155.723 156.294 155.723Z" fill="#00205C"/>
<path d="M148.102 155.606C152.008 155.606 155.174 152.44 155.174 148.534C155.174 144.629 152.008 141.463 148.102 141.463C144.197 141.463 141.031 144.629 141.031 148.534C141.031 152.44 144.197 155.606 148.102 155.606Z" fill="#00205C"/>
<path d="M160.231 135.592C164.137 135.592 167.303 132.426 167.303 128.521C167.303 124.615 164.137 121.449 160.231 121.449C156.326 121.449 153.16 124.615 153.16 128.521C153.16 132.426 156.326 135.592 160.231 135.592Z" fill="#00205C"/>
<path d="M136.894 159.147C140.799 159.147 143.965 155.981 143.965 152.075C143.965 148.17 140.799 145.004 136.894 145.004C132.988 145.004 129.823 148.17 129.823 152.075C129.823 155.981 132.988 159.147 136.894 159.147Z" fill="#00205C"/>
<path d="M159.172 125.181C162.418 125.181 165.05 122.55 165.05 119.303C165.05 116.057 162.418 113.426 159.172 113.426C155.926 113.426 153.294 116.057 153.294 119.303C153.294 122.55 155.926 125.181 159.172 125.181Z" fill="#00205C"/>
<path d="M118.924 135.199C122.17 135.199 124.802 132.567 124.802 129.321C124.802 126.075 122.17 123.443 118.924 123.443C115.678 123.443 113.046 126.075 113.046 129.321C113.046 132.567 115.678 135.199 118.924 135.199Z" fill="#00205C"/>
<path d="M125.265 143.615C128.511 143.615 131.143 140.983 131.143 137.737C131.143 134.491 128.511 131.859 125.265 131.859C122.019 131.859 119.387 134.491 119.387 137.737C119.387 140.983 122.019 143.615 125.265 143.615Z" fill="#00205C"/>
<path d="M120.894 150.65C124.14 150.65 126.771 148.018 126.771 144.772C126.771 141.526 124.14 138.895 120.894 138.895C117.647 138.895 115.016 141.526 115.016 144.772C115.016 148.018 117.647 150.65 120.894 150.65Z" fill="#00205C"/>
<path d="M126.72 154.101C129.966 154.101 132.598 151.47 132.598 148.223C132.598 144.977 129.966 142.346 126.72 142.346C123.474 142.346 120.842 144.977 120.842 148.223C120.842 151.47 123.474 154.101 126.72 154.101Z" fill="#00205C"/>
<path d="M126.859 129.436C133.834 129.436 139.489 123.782 139.489 116.807C139.489 109.832 133.834 104.178 126.859 104.178C119.884 104.178 114.23 109.832 114.23 116.807C114.23 123.782 119.884 129.436 126.859 129.436Z" fill="#00205C"/>
<path d="M139.474 143.821C149.673 143.821 157.942 135.552 157.942 125.353C157.942 115.153 149.673 106.885 139.474 106.885C129.274 106.885 121.006 115.153 121.006 125.353C121.006 135.552 129.274 143.821 139.474 143.821Z" fill="#00205C"/>
<path d="M145.704 143.914L132.234 143.719L131.994 160.288L145.464 160.484L145.704 143.914Z" fill="#F6BFBE"/>
<path d="M145.644 147.681C145.685 144.85 142.702 142.512 138.982 142.458C135.262 142.404 132.212 144.655 132.171 147.486C132.13 150.317 135.113 152.655 138.833 152.709C142.554 152.763 145.603 150.512 145.644 147.681Z" fill="#EB9696"/>
<path d="M139.012 149.681C135.887 149.636 132.902 148.374 130.693 146.162C128.484 143.95 127.225 140.964 127.184 137.838L127.037 126.654C127.017 125.05 127.318 123.458 127.922 121.972C128.527 120.487 129.423 119.138 130.558 118.004C131.693 116.871 133.044 115.976 134.53 115.374C136.017 114.771 137.609 114.472 139.213 114.495H139.833C141.437 114.519 143.019 114.863 144.488 115.509C145.956 116.154 147.28 117.088 148.382 118.254C149.484 119.42 150.34 120.795 150.901 122.297C151.463 123.8 151.717 125.4 151.649 127.003L151.178 138.177C151.049 141.302 149.705 144.252 147.433 146.401C145.16 148.55 142.139 149.726 139.012 149.681V149.681Z" fill="#F6BFBE"/>
<path d="M139.833 113.774C139.833 113.774 140.321 134.573 123.337 134.326C123.337 134.326 119.353 112.744 139.842 113.774" fill="#00205C"/>
<path d="M139.842 113.773C139.842 113.773 139.027 129.395 151.788 129.576C151.788 129.576 155.855 114.005 139.842 113.773Z" fill="#00205C"/>
<path d="M152.157 163.291C152.188 161.123 146.382 159.282 139.188 159.177C131.994 159.073 126.137 160.746 126.105 162.913C126.074 165.081 131.88 166.922 139.074 167.027C146.268 167.131 152.126 165.458 152.157 163.291Z" fill="#F6BFBE"/>
<path d="M137.707 247.853C142.205 247.853 145.852 244.206 145.852 239.708C145.852 235.209 142.205 231.562 137.707 231.562C133.208 231.562 129.561 235.209 129.561 239.708C129.561 244.206 133.208 247.853 137.707 247.853Z" fill="white"/>
<path d="M137.709 249.802H137.56C134.907 249.747 132.383 248.649 130.533 246.746C128.684 244.844 127.657 242.29 127.676 239.637C127.695 236.983 128.758 234.444 130.635 232.568C132.511 230.693 135.051 229.631 137.704 229.613H137.853C140.506 229.669 143.03 230.767 144.88 232.669C146.729 234.571 147.756 237.125 147.737 239.779C147.718 242.432 146.655 244.971 144.779 246.847C142.902 248.723 140.362 249.784 137.709 249.802V249.802ZM137.709 229.855C135.767 229.855 133.868 230.43 132.251 231.506C130.634 232.582 129.371 234.113 128.622 235.904C127.872 237.696 127.669 239.67 128.038 241.577C128.407 243.484 129.331 245.239 130.694 246.623C132.058 248.006 133.8 248.955 135.702 249.351C137.603 249.747 139.58 249.572 141.382 248.848C143.184 248.124 144.733 246.884 145.832 245.282C146.931 243.681 147.533 241.79 147.561 239.848V239.848C147.598 237.236 146.596 234.716 144.776 232.843C142.955 230.969 140.465 229.895 137.853 229.857L137.709 229.855Z" fill="white"/>
<path d="M138.576 199.557C147.97 199.557 155.586 191.941 155.586 182.546C155.586 173.151 147.97 165.535 138.576 165.535C129.181 165.535 121.565 173.151 121.565 182.546C121.565 191.941 129.181 199.557 138.576 199.557Z" fill="#79C68C"/>
<path d="M132.837 181.58L129.696 184.652L136.862 191.98L140.003 188.908L132.837 181.58Z" fill="white"/>
<path d="M149.19 179.869L146.033 176.641L133.763 188.64L136.92 191.868L149.19 179.869Z" fill="white"/>
<path d="M272.719 268.225C253.401 268.225 237.684 252.51 237.684 233.193C237.684 213.875 253.401 198.158 272.719 198.158C292.036 198.158 307.751 213.875 307.751 233.193C307.751 252.51 292.036 268.225 272.719 268.225ZM272.719 200.611C254.746 200.611 240.125 215.232 240.125 233.205C240.125 251.177 254.746 265.796 272.719 265.796C290.691 265.796 305.31 251.17 305.31 233.193C305.31 215.215 290.689 200.599 272.719 200.599V200.611Z" fill="#ED2224"/>
<path d="M292.399 243.65C292.35 243.643 292.303 243.621 292.267 243.587C292.23 243.552 292.205 243.508 292.194 243.459C292.184 243.409 292.189 243.358 292.209 243.312C292.228 243.266 292.262 243.227 292.304 243.201C297.43 240.926 300.95 235.324 301.287 231.438C301.389 230.232 301.245 228.616 299.959 227.755C296.298 225.314 292.6 228.792 292.563 228.826C292.516 228.851 292.462 228.86 292.41 228.851C292.357 228.843 292.309 228.817 292.273 228.779C292.236 228.741 292.213 228.691 292.206 228.639C292.2 228.586 292.212 228.533 292.238 228.487C292.277 228.448 296.263 224.713 300.22 227.364C301.372 228.138 301.929 229.597 301.753 231.477C301.407 235.497 297.77 241.284 292.495 243.628C292.465 243.642 292.432 243.65 292.399 243.65V243.65Z" fill="#D8D9D8"/>
<path d="M252.652 243.649C252.619 243.649 252.586 243.642 252.557 243.627C247.284 241.284 243.645 235.497 243.298 231.477C243.135 229.597 243.681 228.137 244.834 227.364C248.788 224.713 252.774 228.45 252.815 228.486C252.857 228.532 252.881 228.591 252.881 228.652C252.881 228.714 252.857 228.773 252.815 228.818C252.77 228.86 252.711 228.883 252.649 228.883C252.588 228.883 252.529 228.86 252.483 228.818C252.332 228.674 248.729 225.306 245.087 227.747C243.801 228.608 243.655 230.224 243.76 231.43C244.094 235.316 247.624 240.918 252.74 243.193C252.795 243.22 252.838 243.267 252.86 243.324C252.883 243.382 252.882 243.446 252.859 243.503C252.842 243.544 252.813 243.579 252.776 243.605C252.74 243.631 252.697 243.646 252.652 243.649Z" fill="#D8D9D8"/>
<path d="M272.526 251.738C264.378 251.738 256.833 248.933 252.344 244.239L251.556 243.412V227.546L254.014 227.207C255.625 226.982 260.36 225.986 262.921 224.082C266.914 221.114 269.665 219.857 272.416 219.752H272.526H272.635C275.389 219.857 278.14 221.114 282.133 224.082C284.681 225.979 289.429 226.982 291.042 227.207L293.483 227.551V243.4L292.692 244.227C288.218 248.933 280.673 251.738 272.526 251.738Z" fill="#63CBE7"/>
<g style="mix-blend-mode:multiply">
<g style="mix-blend-mode:multiply">
<path d="M280.864 225.869C276.946 222.954 274.637 221.963 272.526 221.893C270.414 221.973 268.108 222.954 264.188 225.869C260.267 228.783 253.413 229.728 253.413 229.728V242.626C262.31 251.933 282.741 251.933 291.64 242.626V229.728C291.64 229.728 284.782 228.783 280.864 225.869Z" fill="#63CBE7"/>
</g>
</g>
<g style="mix-blend-mode:multiply" opacity="0.7">
<g style="mix-blend-mode:multiply" opacity="0.7">
<path d="M290.481 240.917C282.123 249.658 262.93 249.658 254.57 240.917L253.413 229.721V242.626C262.31 251.933 282.741 251.933 291.64 242.626V229.728L290.481 240.917Z" fill="#63CBE7"/>
</g>
</g>
<g style="mix-blend-mode:multiply">
<g style="mix-blend-mode:multiply">
<path d="M256.408 232.131C260.209 231.025 264.156 230.5 268.098 230.229C272.711 229.95 277.342 230.167 281.908 230.879C283.036 231.086 284.686 231.367 285.785 231.657C286.424 231.811 287.064 231.967 287.701 232.131C277.393 230.144 266.709 230.059 256.408 232.131V232.131Z" fill="#63CBE7"/>
</g>
<g style="mix-blend-mode:multiply">
<path d="M256.408 236.453C265.493 237.383 274.691 237.593 283.795 236.831C284.283 236.802 285.26 236.712 285.748 236.653C286.399 236.58 287.05 236.513 287.701 236.453C282.539 237.394 277.301 237.842 272.054 237.791C266.81 237.799 261.575 237.351 256.408 236.453V236.453Z" fill="#63CBE7"/>
</g>
<g style="mix-blend-mode:multiply">
<path d="M257.175 241.541C265.149 244.438 274.08 245.129 282.27 242.735C283.449 242.417 284.586 241.976 285.731 241.541C283.531 242.635 281.202 243.449 278.799 243.962C271.515 245.449 263.949 244.602 257.175 241.541V241.541Z" fill="#63CBE7"/>
</g>
</g>
<path d="M300.781 215.048L242.608 251.32L243.902 253.395L302.074 217.123L300.781 215.048Z" fill="#ED2224"/>
<path d="M272.719 112.321C253.401 112.321 237.684 96.6038 237.684 77.2864C237.684 57.969 253.401 42.252 272.719 42.252C292.036 42.252 307.751 57.969 307.751 77.2864C307.751 96.6038 292.036 112.321 272.719 112.321ZM272.719 44.6929C254.746 44.6929 240.125 59.3139 240.125 77.2864C240.125 95.2588 254.746 109.88 272.719 109.88C290.691 109.88 305.31 95.2588 305.31 77.2864C305.31 59.3139 290.689 44.6929 272.719 44.6929V44.6929Z" fill="#ED2224"/>
<path d="M296.586 87.8725C289.88 88.1428 283.201 86.8789 277.058 84.1769C278.121 82.5412 279.539 81.1669 281.208 80.1568C282.656 79.2759 284.314 78.7996 286.009 78.7776C290.852 78.7386 295.407 82.4708 296.586 87.8725Z" fill="#167D3E"/>
<path d="M266.243 76.7708C265.291 77.8643 263.856 79.468 262.022 81.328C256.728 86.698 254.7 87.5425 253.235 87.9184C252.066 88.2114 249.449 88.868 247.833 87.4132C246.217 85.9584 246.488 83.1855 246.991 81.6746C248.112 78.311 252.132 76.0336 257.116 75.7676L266.243 76.7708Z" fill="#167D3E"/>
<path d="M296.786 87.9099C295.81 87.3143 294.782 86.7016 293.681 86.0816C291.797 85.0223 289.717 83.9409 287.447 82.8865C278.441 78.6954 268.808 76.0098 258.932 74.9364V74.9364L258.817 74.9217C261.746 62.7391 273.724 55.8411 283.768 58.2894L284.132 58.3845C284.755 58.5503 285.367 58.7533 285.965 58.9923C295.883 62.8954 302.024 75.9567 296.786 87.9099Z" fill="#45B649"/>
<g opacity="0.23">
<path opacity="0.23" d="M283.766 58.2836C281.23 58.3568 271.561 59.0281 265.476 66.6706C263.778 68.8163 262.518 71.2744 261.766 73.9054C260.848 74.3167 259.901 74.6594 258.932 74.9306L258.817 74.916C261.742 62.7309 273.722 55.8354 283.766 58.2836Z" fill="white"/>
</g>
<path d="M287.505 83.0154C286.261 84.58 283.356 87.7556 278.56 89.2592C276.451 89.9231 274.373 90.5724 271.969 89.9353C267.844 88.8345 268.093 85.3147 262.013 81.3287C258.793 79.2197 256.557 78.629 255.8 78.4679C253.639 78.0149 251.407 78.0232 249.249 78.4924C249.622 78.1604 250.062 77.7869 250.572 77.4013C250.711 77.2987 250.853 77.1913 251.002 77.0864C251.638 76.6306 252.301 76.2141 252.988 75.8391C253.137 75.7536 253.289 75.6755 253.445 75.595C253.601 75.5144 253.721 75.4534 253.867 75.3851C254.448 75.1084 255.044 74.864 255.652 74.6528C255.822 74.5918 256.001 74.5307 256.193 74.4673C256.386 74.4038 256.56 74.3477 256.76 74.2891C256.96 74.2305 257.143 74.1793 257.346 74.1256C258.925 73.7028 260.547 73.4629 262.181 73.4104C264.185 73.3518 266.968 73.6545 275.345 77.123C277.122 77.8553 279.114 78.734 281.281 79.7812L281.503 79.8886C281.956 80.1082 282.415 80.3361 282.88 80.572C282.953 80.6062 283.024 80.6404 283.097 80.6818C283.444 80.8552 283.793 81.0358 284.149 81.2188L284.362 81.3287C284.747 81.5313 285.14 81.7388 285.536 81.9511C285.602 81.9877 285.672 82.0243 285.743 82.0585C286.319 82.3588 286.915 82.6834 287.505 83.0154Z" fill="#17A349"/>
<path d="M296.786 87.9087C293.774 86.0536 290.655 84.3763 287.447 82.8853C289.515 79.1782 290.474 74.9552 290.212 70.7185C289.949 66.4818 288.475 62.4096 285.965 58.9863C295.883 62.8942 302.024 75.9556 296.786 87.9087Z" fill="#45B649"/>
<g opacity="0.42">
<path opacity="0.42" d="M286.378 60.2056C286.378 60.0543 286.134 60.0836 286.134 60.2325C286.139 60.3232 286.157 60.4127 286.187 60.4985C286.214 60.5913 286.28 60.6718 286.3 60.767C286.327 60.9135 286.558 60.8866 286.529 60.7377C286.507 60.5498 286.383 60.4058 286.378 60.2056Z" fill="white"/>
</g>
<g opacity="0.42">
<path opacity="0.42" d="M287.027 61.5726C286.998 61.5058 286.971 61.4375 286.946 61.3675C286.895 61.226 286.678 61.3114 286.729 61.453C286.753 61.5229 286.781 61.5913 286.812 61.658C286.873 61.7947 287.09 61.7093 287.027 61.5726Z" fill="white"/>
</g>
<g opacity="0.42">
<path opacity="0.42" d="M287.505 62.6146C287.454 62.5016 287.42 62.3814 287.405 62.2583C287.405 62.1094 287.161 62.1387 287.161 62.2875C287.172 62.3944 287.199 62.499 287.242 62.5975C287.256 62.639 287.269 62.6805 287.286 62.722C287.303 62.7635 287.33 62.8001 287.327 62.8319C287.31 62.9808 287.54 63.0149 287.557 62.866C287.559 62.7794 287.542 62.6934 287.505 62.6146Z" fill="white"/>
</g>
<g opacity="0.42">
<path opacity="0.42" d="M288.006 63.7776C287.996 63.7515 287.989 63.7245 287.984 63.6971C287.981 63.644 287.966 63.5923 287.94 63.5457C287.915 63.5065 287.897 63.4625 287.889 63.4164C287.869 63.3456 287.811 63.3163 287.816 63.2333C287.816 63.0844 287.594 63.0502 287.586 63.2016C287.58 63.2519 287.584 63.303 287.599 63.3517C287.613 63.4004 287.637 63.4456 287.669 63.4847C287.703 63.6214 287.764 63.741 287.799 63.8826C287.803 63.9076 287.815 63.9307 287.833 63.9486C287.851 63.9666 287.874 63.9785 287.899 63.9827H287.93C288.06 64.0168 288.101 63.8411 288.006 63.7776Z" fill="white"/>
</g>
<g opacity="0.42">
<path opacity="0.42" d="M288.494 64.8354C288.457 64.7866 288.428 64.7329 288.389 64.6865C288.35 64.6401 288.304 64.6181 288.309 64.5913C288.338 64.4448 288.108 64.4107 288.079 64.5571C288.073 64.5939 288.076 64.6315 288.087 64.667C288.098 64.7025 288.117 64.7351 288.143 64.7622C288.201 64.8305 288.252 64.8988 288.306 64.9721C288.391 65.0941 288.579 64.9574 288.494 64.8354Z" fill="white"/>
</g>
<g opacity="0.42">
<path opacity="0.42" d="M288.821 65.9432C288.784 65.8824 288.754 65.8177 288.731 65.7504C288.694 65.6885 288.677 65.6172 288.68 65.5454C288.68 65.3965 288.436 65.4258 288.436 65.5747C288.435 65.6602 288.457 65.7443 288.499 65.8187C288.53 65.9046 288.571 65.9866 288.621 66.0628C288.733 66.1922 288.921 66.0555 288.821 65.9432Z" fill="white"/>
</g>
<g opacity="0.42">
<path opacity="0.42" d="M289.119 66.9116C289.069 66.8469 289.044 66.7663 289.048 66.6846C289.048 66.5382 288.819 66.504 288.819 66.6529C288.812 66.7298 288.818 66.8072 288.836 66.8823C288.846 66.9132 288.86 66.9427 288.877 66.9702C288.877 66.9849 288.943 67.0483 288.941 67.0654C288.926 67.2119 289.156 67.246 289.185 67.0971C289.187 67.0633 289.183 67.0294 289.171 66.9974C289.16 66.9655 289.142 66.9363 289.119 66.9116V66.9116Z" fill="white"/>
</g>
<g opacity="0.42">
<path opacity="0.42" d="M289.378 67.8569C289.351 67.7104 289.119 67.7373 289.134 67.8862C289.148 68.0351 289.268 68.1669 289.258 68.3085C289.248 68.45 289.48 68.4891 289.502 68.3402C289.482 68.1744 289.44 68.012 289.378 67.8569Z" fill="white"/>
</g>
<g opacity="0.42">
<path opacity="0.42" d="M289.666 69.4827C289.658 69.3868 289.658 69.2905 289.666 69.1947C289.666 69.0458 289.436 69.0116 289.422 69.1605C289.422 69.263 289.422 69.368 289.422 69.4705C289.422 69.573 289.461 69.6658 289.466 69.7659C289.466 69.9172 289.71 69.8879 289.71 69.739C289.702 69.6511 289.678 69.5657 289.666 69.4827Z" fill="white"/>
</g>
<g opacity="0.42">
<path opacity="0.42" d="M289.517 70.6309V71.1191C289.517 71.268 289.761 71.2387 289.761 71.0922V70.6041C289.749 70.4527 289.517 70.482 289.517 70.6309Z" fill="white"/>
</g>
<g opacity="0.42">
<path opacity="0.42" d="M289.788 72.0539C289.859 71.9831 289.822 71.8318 289.7 71.8586H289.666C289.641 71.8632 289.618 71.8752 289.6 71.8931C289.582 71.9109 289.57 71.9338 289.566 71.9587C289.539 72.0832 289.566 72.2028 289.549 72.3346C289.531 72.4493 289.52 72.5651 289.517 72.6812C289.517 72.8301 289.746 72.8008 289.761 72.6519C289.768 72.5406 289.781 72.4298 289.8 72.32C289.795 72.2345 289.78 72.1442 289.788 72.0539Z" fill="white"/>
</g>
<g opacity="0.42">
<path opacity="0.42" d="M289.558 73.4713C289.558 73.6031 289.5 73.7398 289.485 73.8741C289.484 73.9302 289.476 73.9861 289.461 74.0401C289.442 74.0917 289.433 74.1463 289.434 74.2012C289.434 74.3501 289.678 74.3232 289.678 74.1719C289.678 74.1304 289.712 74.0816 289.722 74.0376C289.732 73.9937 289.722 73.918 289.737 73.857C289.765 73.7412 289.786 73.6238 289.8 73.5055C289.79 73.3615 289.561 73.3273 289.558 73.4713Z" fill="white"/>
</g>
<g opacity="0.42">
<path opacity="0.42" d="M289.475 74.8623C289.475 74.9014 289.436 74.9551 289.431 74.999C289.426 75.0429 289.431 75.1479 289.412 75.2236C289.38 75.3475 289.361 75.4742 289.353 75.6019C289.353 75.7532 289.597 75.7239 289.583 75.575C289.594 75.5092 289.609 75.444 289.627 75.3798C289.627 75.3163 289.646 75.2553 289.656 75.1918C289.652 75.1284 289.652 75.0648 289.656 75.0014C289.679 74.9488 289.692 74.8926 289.695 74.8355C289.702 74.6914 289.473 74.7134 289.475 74.8623Z" fill="white"/>
</g>
<g opacity="0.42">
<path opacity="0.42" d="M289.29 76.2548H289.256C289.23 76.2586 289.207 76.2704 289.189 76.2884C289.171 76.3064 289.159 76.3297 289.156 76.3548C289.131 76.4744 289.085 76.5989 289.051 76.7063C289.028 76.8079 288.986 76.9041 288.926 76.9895C288.831 77.1042 289.012 77.2506 289.107 77.1359C289.181 77.0365 289.235 76.9227 289.263 76.8015C289.297 76.6868 289.336 76.5721 289.365 76.4574C289.453 76.4012 289.417 76.2279 289.29 76.2548Z" fill="white"/>
</g>
<g opacity="0.42">
<path opacity="0.42" d="M288.867 77.8043C288.851 77.8441 288.837 77.8848 288.826 77.9263C288.825 77.9426 288.825 77.9589 288.826 77.9752C288.797 77.9974 288.773 78.0253 288.755 78.0573C288.738 78.0892 288.727 78.1244 288.723 78.1607C288.719 78.2157 288.708 78.2698 288.689 78.3218C288.666 78.3713 288.654 78.4256 288.655 78.4804C288.655 78.6293 288.899 78.6025 288.899 78.4536C288.899 78.4243 288.938 78.3681 288.946 78.3364C288.953 78.3047 288.946 78.2046 288.977 78.1655C289.009 78.1265 289.043 78.1167 289.058 78.0581C289.072 77.9996 289.075 77.9507 289.097 77.897C289.136 77.7579 288.924 77.6627 288.867 77.8043Z" fill="white"/>
</g>
<g opacity="0.42">
<path opacity="0.42" d="M288.35 79.1729C288.281 79.2658 288.231 79.371 288.201 79.4829C288.193 79.5916 288.159 79.6968 288.103 79.7904C288.003 79.9027 288.184 80.0467 288.284 79.9368C288.346 79.8587 288.387 79.7664 288.404 79.6684C288.42 79.5442 288.463 79.4251 288.531 79.3193C288.619 79.1973 288.435 79.0508 288.35 79.1729Z" fill="white"/>
</g>
<g opacity="0.42">
<path opacity="0.42" d="M287.891 80.4052H287.857C287.832 80.4089 287.809 80.4203 287.791 80.4379C287.773 80.4554 287.761 80.4781 287.757 80.5028C287.723 80.6957 287.571 80.8665 287.586 81.0618C287.586 81.2107 287.83 81.1838 287.815 81.0325C287.815 80.9593 287.881 80.8641 287.911 80.7884C287.934 80.7261 287.955 80.6625 287.972 80.598C288.055 80.5492 288.028 80.3783 287.891 80.4052Z" fill="white"/>
</g>
<g opacity="0.42">
<path opacity="0.42" d="M287.264 81.7895C287.233 81.911 287.184 82.0271 287.117 82.1336C287.017 82.2459 287.2 82.3899 287.298 82.2776C287.379 82.1564 287.44 82.0229 287.479 81.8822C287.489 81.8541 287.488 81.8231 287.476 81.7956C287.465 81.768 287.443 81.7461 287.415 81.7342C287.388 81.7223 287.357 81.7214 287.329 81.7317C287.3 81.742 287.277 81.7627 287.264 81.7895V81.7895Z" fill="white"/>
</g>
<g opacity="0.42">
<path opacity="0.42" d="M287.63 60.806C287.512 60.6668 287.434 60.498 287.405 60.3178C287.379 60.1714 287.147 60.1982 287.161 60.3471C287.196 60.5638 287.289 60.767 287.43 60.9353C287.54 61.0549 287.73 60.9183 287.63 60.806Z" fill="white"/>
</g>
<g opacity="0.42">
<path opacity="0.42" d="M288.04 61.6282C288.003 61.5891 288.003 61.533 287.981 61.4817C287.959 61.4305 287.896 61.3817 287.898 61.3451C287.898 61.1962 287.676 61.162 287.654 61.3109C287.652 61.3954 287.681 61.4778 287.735 61.5428C287.779 61.6136 287.781 61.7014 287.842 61.7673C287.952 61.8772 288.143 61.7405 288.04 61.6282Z" fill="white"/>
</g>
<g opacity="0.42">
<path opacity="0.42" d="M288.516 62.5552C288.492 62.4478 288.416 62.3648 288.392 62.2574C288.357 62.1134 288.125 62.1402 288.147 62.2867C288.181 62.3775 288.219 62.4663 288.262 62.5527C288.282 62.6065 288.284 62.665 288.301 62.7187C288.318 62.7724 288.355 62.8017 288.355 62.831C288.355 62.9799 288.577 63.0141 288.584 62.8652C288.576 62.7592 288.553 62.6549 288.516 62.5552Z" fill="white"/>
</g>
<g opacity="0.42">
<path opacity="0.42" d="M289.207 63.7519C289.114 63.5955 289.047 63.4248 289.009 63.2466C289.009 63.0953 288.765 63.1246 288.765 63.2735C288.803 63.4721 288.875 63.6628 288.978 63.8373C288.989 63.8678 289.012 63.8924 289.041 63.9059C289.071 63.9194 289.105 63.9207 289.135 63.9093C289.165 63.898 289.19 63.8751 289.204 63.8455C289.217 63.816 289.218 63.7823 289.207 63.7519V63.7519Z" fill="white"/>
</g>
<g opacity="0.42">
<path opacity="0.42" d="M289.531 64.6015C289.524 64.5745 289.514 64.5484 289.502 64.5233C289.485 64.4867 289.461 64.4526 289.444 64.4184C289.478 64.3403 289.444 64.2329 289.331 64.2549H289.295C289.264 64.2597 289.236 64.276 289.217 64.3005C289.198 64.325 289.189 64.3558 289.192 64.3867C289.209 64.5014 289.295 64.5868 289.319 64.7015C289.322 64.7265 289.334 64.7497 289.351 64.7677C289.369 64.7858 289.392 64.7976 289.417 64.8016H289.451C289.58 64.8382 289.622 64.6649 289.531 64.6015Z" fill="white"/>
</g>
<g opacity="0.42">
<path opacity="0.42" d="M289.807 65.6287C289.801 65.5841 289.789 65.5406 289.771 65.4993C289.756 65.4676 289.702 65.4115 289.707 65.3724C289.722 65.2235 289.49 65.1893 289.463 65.3382C289.466 65.4256 289.494 65.5104 289.544 65.5823C289.56 65.6299 289.571 65.6789 289.578 65.7288C289.602 65.7869 289.619 65.8475 289.629 65.9094C289.629 66.0583 289.851 66.0925 289.859 65.9411C289.855 65.8352 289.838 65.7301 289.807 65.6287V65.6287Z" fill="white"/>
</g>
<g opacity="0.42">
<path opacity="0.42" d="M290.225 67.1241C290.166 66.9913 290.141 66.8466 290.149 66.7018C290.149 66.5529 289.905 66.5822 289.905 66.7287C289.898 66.8962 289.929 67.063 289.995 67.2169C290.083 67.3389 290.3 67.2559 290.225 67.1241Z" fill="white"/>
</g>
<g opacity="0.42">
<path opacity="0.42" d="M290.437 67.8565C290.493 67.7173 290.278 67.6124 290.225 67.7637C290.188 67.9186 290.188 68.0799 290.225 68.2348C290.225 68.3861 290.469 68.3568 290.469 68.2079C290.469 68.059 290.391 67.9834 290.437 67.8565Z" fill="white"/>
</g>
<g opacity="0.42">
<path opacity="0.42" d="M290.713 69.436C290.671 69.392 290.674 69.3066 290.659 69.2505C290.638 69.17 290.622 69.0886 290.61 69.0064C290.609 68.9913 290.604 68.9767 290.596 68.9635C290.589 68.9503 290.579 68.9386 290.567 68.9292C290.555 68.9198 290.542 68.9128 290.527 68.9087C290.513 68.9045 290.497 68.9033 290.482 68.9051C290.467 68.9068 290.453 68.9116 290.439 68.919C290.426 68.9263 290.414 68.9363 290.405 68.9482C290.396 68.9601 290.389 68.9737 290.385 68.9883C290.38 69.0029 290.379 69.0182 290.381 69.0332C290.381 69.1431 290.425 69.2456 290.444 69.353C290.448 69.4357 290.476 69.5156 290.525 69.5824C290.625 69.6849 290.813 69.5458 290.713 69.436Z" fill="white"/>
</g>
<g opacity="0.42">
<path opacity="0.42" d="M290.857 70.1899C290.857 70.041 290.625 70.0703 290.627 70.2192C290.632 70.3014 290.643 70.3831 290.662 70.4633C290.686 70.5342 290.702 70.608 290.708 70.6829C290.708 70.8318 290.93 70.866 290.952 70.7171C290.974 70.5682 290.859 70.3681 290.857 70.1899Z" fill="white"/>
</g>
<g opacity="0.42">
<path opacity="0.42" d="M290.586 71.7799V72.1924C290.586 72.3413 290.815 72.312 290.815 72.1631V71.7628C290.815 71.6041 290.586 71.6334 290.586 71.7799Z" fill="white"/>
</g>
<g opacity="0.42">
<path opacity="0.42" d="M290.544 73.1782V73.6297C290.544 73.7786 290.789 73.7518 290.789 73.6029V73.1489C290.776 73 290.544 73.0293 290.544 73.1782Z" fill="white"/>
</g>
<g opacity="0.42">
<path opacity="0.42" d="M290.552 74.2697C290.508 74.4059 290.491 74.5493 290.501 74.692C290.501 74.8653 290.469 75.0313 290.462 75.2022C290.454 75.373 290.686 75.3852 290.706 75.2363C290.725 75.0874 290.742 74.9605 290.747 74.8214C290.731 74.6677 290.741 74.5124 290.779 74.3625C290.82 74.2209 290.606 74.1281 290.552 74.2697Z" fill="white"/>
</g>
<g opacity="0.42">
<path opacity="0.42" d="M290.225 75.9317C290.225 75.9585 290.2 75.9976 290.193 76.0244C290.187 76.0747 290.187 76.1255 290.193 76.1758C290.193 76.2905 290.156 76.4028 290.151 76.5175C290.147 76.6322 290.374 76.7006 290.381 76.5517C290.388 76.4028 290.42 76.3222 290.425 76.2051C290.42 76.1508 290.426 76.0962 290.442 76.044C290.458 75.9993 290.465 75.9522 290.464 75.9048C290.439 75.7535 290.21 75.7828 290.225 75.9317Z" fill="white"/>
</g>
<g opacity="0.42">
<path opacity="0.42" d="M290.051 77.2578C290.029 77.3871 289.959 77.5019 289.924 77.6312C289.89 77.7606 289.829 77.8753 289.805 77.9974C289.78 78.1194 290.005 78.178 290.034 78.0315C290.086 77.7874 290.237 77.5434 290.278 77.2993C290.308 77.1333 290.078 77.1113 290.051 77.2578Z" fill="white"/>
</g>
<g opacity="0.42">
<path opacity="0.42" d="M289.6 78.9027C289.6 78.9808 289.57 79.0565 289.553 79.1346C289.549 79.1927 289.531 79.2489 289.5 79.2981C289.397 79.408 289.58 79.5422 289.683 79.4446C289.731 79.3788 289.762 79.3013 289.771 79.22C289.793 79.1248 289.815 79.0321 289.829 78.9344C289.833 78.904 289.825 78.8731 289.807 78.8486C289.788 78.8242 289.761 78.808 289.73 78.8038C289.7 78.7996 289.669 78.8077 289.645 78.8262C289.62 78.8448 289.604 78.8723 289.6 78.9027V78.9027Z" fill="white"/>
</g>
<g opacity="0.42">
<path opacity="0.42" d="M289.131 80.2002C289.066 80.3042 289.017 80.4179 288.987 80.5371C288.935 80.6386 288.905 80.7501 288.899 80.8641C288.914 81.013 289.143 80.9837 289.143 80.8348C289.143 80.7592 289.199 80.6664 289.221 80.5908C289.242 80.5044 289.277 80.422 289.324 80.3467C289.397 80.2246 289.217 80.0782 289.131 80.2002Z" fill="white"/>
</g>
<g opacity="0.42">
<path opacity="0.42" d="M288.645 81.5629C288.528 81.5995 288.487 81.7313 288.462 81.8387C288.416 81.98 288.384 82.1255 288.367 82.2732C288.367 82.4196 288.592 82.4538 288.597 82.3049C288.613 82.1874 288.639 82.0715 288.675 81.9583C288.675 81.9192 288.694 81.7899 288.731 81.7801C288.872 81.7362 288.787 81.5262 288.645 81.5629Z" fill="white"/>
</g>
<g opacity="0.42">
<path opacity="0.42" d="M288.104 82.7471C288.028 82.8413 287.989 82.9605 287.996 83.0815C287.996 83.2304 288.226 83.2011 288.24 83.0522C288.239 82.9943 288.259 82.9381 288.296 82.8935C288.316 82.868 288.324 82.8357 288.32 82.8039C288.315 82.7721 288.299 82.7433 288.273 82.7239C288.248 82.7045 288.215 82.696 288.184 82.7003C288.152 82.7047 288.123 82.7215 288.104 82.7471V82.7471Z" fill="white"/>
</g>
<g opacity="0.37">
<path opacity="0.37" d="M285.753 82.0455C284.499 83.6847 282.931 85.0586 281.142 86.0876C280.031 86.7247 277.605 88.1185 274.796 88.1185C274.417 88.1191 274.038 88.0922 273.663 88.0379C271.891 87.7938 270.995 87.0323 269.374 85.658C268.642 85.0405 267.744 84.2765 266.54 83.366C262.703 80.4686 259.083 77.7348 254.678 77.2247C253.309 77.071 251.925 77.1303 250.574 77.4004C250.714 77.2979 250.855 77.1905 251.004 77.0855C252.227 76.8858 253.473 76.8546 254.704 76.9928C259.171 77.5102 262.818 80.2636 266.68 83.1805C267.9 84.0958 268.796 84.8623 269.523 85.4798C271.166 86.8687 271.991 87.5693 273.695 87.8085C276.868 88.2576 279.78 86.588 281.018 85.885C282.769 84.8793 284.305 83.5381 285.538 81.9381C285.611 81.9747 285.682 82.0137 285.753 82.0455Z" fill="white"/>
</g>
<g opacity="0.45">
<path opacity="0.45" d="M284.366 81.316C282.962 82.8934 281.241 84.1575 279.316 85.0262C278.052 85.5925 276.387 86.3345 274.434 86.3345C274.094 86.3355 273.754 86.3127 273.417 86.2662C271.464 86.0001 270.465 85.0677 268.937 83.6519C267.475 82.2587 265.905 80.983 264.241 79.8368C261.956 78.2673 259.984 76.9077 257.128 76.2365C255.769 75.9175 254.374 75.7837 252.979 75.8386C253.128 75.7532 253.279 75.6751 253.435 75.5945C254.692 75.5821 255.946 75.7214 257.17 76.0095C260.067 76.6954 262.052 78.0623 264.363 79.644C266.042 80.7947 267.627 82.0769 269.103 83.4786C270.651 84.9139 271.586 85.778 273.456 86.0343C275.782 86.3516 277.774 85.4607 279.228 84.8138C281.104 83.9673 282.783 82.7395 284.159 81.2086L284.366 81.316Z" fill="white"/>
</g>
<g opacity="0.25">
<path opacity="0.25" d="M296.786 87.9087C295.81 87.3132 294.782 86.7005 293.681 86.0805C294.074 85.0675 298.878 72.2039 291.687 63.463C290.121 61.5792 288.17 60.0528 285.965 58.9863C295.883 62.8942 302.024 75.9556 296.786 87.9087Z" fill="#3E1313"/>
</g>
<path d="M283.595 57.4531H283.578V60.4555H283.595V57.4531Z" fill="#F99D3A"/>
<path d="M283.683 57.4531H283.595V60.4555H283.683V57.4531Z" fill="#F99D3A"/>
<path d="M283.771 57.4531H283.683V60.4555H283.771V57.4531Z" fill="#F99D3B"/>
<path d="M283.861 57.4531H283.773V60.4555H283.861V57.4531Z" fill="#F89C3B"/>
<path d="M283.949 57.4531H283.861V60.4555H283.949V57.4531Z" fill="#F89B3C"/>
<path d="M284.037 57.4531H283.949V60.4555H284.037V57.4531Z" fill="#F89B3D"/>
<path d="M284.127 57.4531H284.04V60.4555H284.127V57.4531Z" fill="#F89A3D"/>
<path d="M284.215 57.4531H284.127V60.4555H284.215V57.4531Z" fill="#F8993E"/>
<path d="M284.303 57.4531H284.215V60.4555H284.303V57.4531Z" fill="#F8983F"/>
<path d="M284.393 57.4531H284.305V60.4555H284.393V57.4531Z" fill="#F8983F"/>
<path d="M284.481 57.4531H284.393V60.4555H284.481V57.4531Z" fill="#F89740"/>
<path d="M284.569 57.4531H284.481V60.4555H284.569V57.4531Z" fill="#F89641"/>
<path d="M284.659 57.4531H284.572V60.4555H284.659V57.4531Z" fill="#F79641"/>
<path d="M284.747 57.4531H284.659V60.4555H284.747V57.4531Z" fill="#F79542"/>
<path d="M284.835 57.4531H284.747V60.4555H284.835V57.4531Z" fill="#F79443"/>
<path d="M284.923 57.4531H284.835V60.4555H284.923V57.4531Z" fill="#F79443"/>
<path d="M285.013 57.4531H284.926V60.4555H285.013V57.4531Z" fill="#F79344"/>
<path d="M285.101 57.4531H285.013V60.4555H285.101V57.4531Z" fill="#F79244"/>
<path d="M285.189 57.4531H285.101V60.4555H285.189V57.4531Z" fill="#F79145"/>
<path d="M285.28 57.4531H285.192V60.4555H285.28V57.4531Z" fill="#F79146"/>
<path d="M285.367 57.4531H285.279V60.4555H285.367V57.4531Z" fill="#F79046"/>
<path d="M285.455 57.4531H285.367V60.4555H285.455V57.4531Z" fill="#F78F47"/>
<path d="M285.545 57.4531H285.458V60.4555H285.545V57.4531Z" fill="#F78F47"/>
<path d="M285.633 57.4531H285.545V60.4555H285.633V57.4531Z" fill="#F68E48"/>
<path d="M285.721 57.4531H285.633V60.4555H285.721V57.4531Z" fill="#F68D48"/>
<path d="M285.811 57.4531H285.724V60.4555H285.811V57.4531Z" fill="#F68D49"/>
<path d="M285.899 57.4531H285.812V60.4555H285.899V57.4531Z" fill="#F68C49"/>
<path d="M285.987 57.4531H285.899V60.4555H285.987V57.4531Z" fill="#F68B4A"/>
<path d="M286.078 57.4531H285.99V60.4555H286.078V57.4531Z" fill="#F68B4B"/>
<path d="M286.165 57.4531H286.078V60.4555H286.165V57.4531Z" fill="#F68A4B"/>
<path d="M286.253 57.4531H286.165V60.4555H286.253V57.4531Z" fill="#F6894C"/>
<path d="M286.344 57.4531H286.256V60.4555H286.344V57.4531Z" fill="#F6894C"/>
<path d="M286.432 57.4531H286.344V60.4555H286.432V57.4531Z" fill="#F6884D"/>
<path d="M286.519 57.4531H286.431V60.4555H286.519V57.4531Z" fill="#F6874D"/>
<path d="M286.61 57.4531H286.522V60.4555H286.61V57.4531Z" fill="#F5864E"/>
<path d="M286.698 57.4531H286.61V60.4555H286.698V57.4531Z" fill="#F5864E"/>
<path d="M286.785 57.4531H286.698V60.4555H286.785V57.4531Z" fill="#F5854F"/>
<path d="M286.876 57.4531H286.788V60.4555H286.876V57.4531Z" fill="#F5844F"/>
<path d="M286.964 57.4531H286.876V60.4555H286.964V57.4531Z" fill="#F5844F"/>
<path d="M287.052 57.4531H286.964V60.4555H287.052V57.4531Z" fill="#F58350"/>
<path d="M287.142 57.4531H287.054V60.4555H287.142V57.4531Z" fill="#F58250"/>
<path d="M287.23 57.4531H287.142V60.4555H287.23V57.4531Z" fill="#F58151"/>
<path d="M287.318 57.4531H287.229V60.4555H287.318V57.4531Z" fill="#F58151"/>
<path d="M287.408 57.4531H287.32V60.4555H287.408V57.4531Z" fill="#F48052"/>
<path d="M287.496 57.4531H287.408V60.4555H287.496V57.4531Z" fill="#F47F52"/>
<path d="M287.735 57.4531H287.496V60.4555H287.735V57.4531Z" fill="#F47F52"/>
<g opacity="0.23">
<path opacity="0.23" d="M286.431 57.9992C286.222 57.9527 286.007 57.9338 285.792 57.943C285.438 57.9577 284.723 57.9845 284.342 58.5459C284.192 58.7737 284.115 59.0421 284.122 59.3148C283.812 59.1366 283.583 58.9243 283.6 58.6948C283.644 58.1603 285.03 57.4622 286.117 57.8552C286.226 57.8931 286.331 57.9413 286.431 57.9992V57.9992Z" fill="white"/>
</g>
<path d="M300.677 55.804L242.663 92.1113L243.958 94.1804L301.972 57.8731L300.677 55.804Z" fill="#ED2224"/>
<path d="M272.719 190.271C253.401 190.271 237.684 174.557 237.684 155.239C237.684 135.922 253.401 120.205 272.719 120.205C292.036 120.205 307.751 135.922 307.751 155.242C307.751 174.562 292.036 190.271 272.719 190.271ZM272.719 122.658C254.746 122.658 240.125 137.279 240.125 155.252C240.125 173.224 254.746 187.843 272.719 187.843C290.691 187.843 305.31 173.21 305.31 155.242C305.31 137.274 290.689 122.646 272.719 122.646V122.658Z" fill="#ED2224"/>
<path d="M272.362 152.569C276.88 152.569 276.133 159.996 278.801 163.775C281.469 167.553 291.931 165.642 291.931 165.642C297.128 163.904 297.481 159.083 297.874 157.302C298.267 155.52 299.119 154.568 299.903 154.568C300.686 154.568 301.646 154.045 301.646 152.351C301.646 150.657 300.115 150.745 298.834 150.745C297.552 150.745 297.162 150.179 297.162 150.179C294.404 146.813 288.374 147.494 284.745 147.494C281.115 147.494 278.552 148.407 277.7 149.32C277.082 149.962 276.431 150.571 275.748 151.143C274.732 149.906 272.367 149.969 272.367 149.969C272.367 149.969 270.002 149.903 268.986 151.141C268.303 150.569 267.651 149.96 267.034 149.317C266.182 148.404 263.616 147.494 259.989 147.494C256.362 147.494 250.328 146.82 247.572 150.179C247.572 150.179 247.179 150.743 245.9 150.743C244.621 150.743 243.088 150.655 243.088 152.349C243.088 154.043 244.05 154.565 244.831 154.565C245.612 154.565 246.469 155.52 246.859 157.302C247.25 159.083 247.606 163.892 252.801 165.64C252.801 165.64 263.262 167.551 265.93 163.772C268.598 159.994 267.854 152.566 272.372 152.566" fill="#212121"/>
<path d="M257.719 148.571C257.719 148.571 247.597 148.136 247.597 152.476C247.597 156.816 247.028 164.983 257.719 164.983C257.719 164.983 263.929 165.288 265.459 162.379C266.99 159.469 268.484 153.084 266.953 151.217C265.423 149.349 261.971 148.571 257.719 148.571Z" fill="#D2D2D2"/>
<path d="M286.959 148.571C286.959 148.571 297.084 148.136 297.084 152.476C297.084 156.816 297.652 164.983 286.959 164.983C286.959 164.983 280.752 165.288 279.221 162.376C277.691 159.464 276.197 153.084 277.727 151.214C279.258 149.344 282.707 148.571 286.959 148.571Z" fill="#D2D2D2"/>
<path d="M302.225 136.468L244.052 172.74L245.346 174.815L303.519 138.543L302.225 136.468Z" fill="#ED2224"/>
</svg>
