<svg width="253" height="258" viewBox="0 0 253 258" fill="none" xmlns="http://www.w3.org/2000/svg">
<path d="M106.86 257.87L24.1342 257.699C17.6674 257.631 11.4921 254.998 6.96642 250.378C2.44077 245.758 -0.0646099 239.53 0.00126701 233.063L2.15 24.1342C2.21733 17.6674 4.85046 11.4921 9.47029 6.96643C14.0901 2.44078 20.3184 -0.0646099 26.7852 0.00126701L109.511 0.175854C112.713 0.208137 115.878 0.870941 118.824 2.12641C121.77 3.38188 124.44 5.20542 126.681 7.49287C128.922 9.78031 130.69 12.4868 131.885 15.4579C133.08 18.4289 133.678 21.6062 133.644 24.8084L131.496 233.74C131.428 240.207 128.795 246.382 124.175 250.907C119.555 255.432 113.327 257.937 106.86 257.87V257.87Z" fill="#101342"/>
<path d="M106.777 250.737L24.3651 250.565C22.1661 250.542 19.9932 250.087 17.9704 249.224C15.9476 248.361 14.1146 247.109 12.5763 245.537C11.038 243.966 9.82449 242.106 9.00513 240.066C8.18577 238.025 7.77662 235.843 7.80108 233.644L9.94981 25.2329C9.99588 20.7944 11.803 16.5559 14.9737 13.4497C18.1445 10.3434 22.4191 8.62372 26.8576 8.66883L109.272 8.83805C113.711 8.88553 117.95 10.6943 121.056 13.8665C124.161 17.0388 125.88 21.3147 125.834 25.7539L123.685 234.181C123.636 238.618 121.828 242.854 118.657 245.958C115.487 249.062 111.214 250.781 106.777 250.737V250.737Z" fill="white"/>
<path d="M117.636 232.013C117.598 234.715 116.489 237.29 114.552 239.174C112.616 241.057 110.01 242.095 107.309 242.059L23.1942 241.572C20.4924 241.534 17.9164 240.424 16.0327 238.487C14.1489 236.55 13.1116 233.944 13.1489 231.242L13.4766 207.875L16.0014 27.3815C16.0199 26.044 16.3018 24.7232 16.8309 23.4946C17.3599 22.266 18.1258 21.1536 19.0849 20.2211C20.0439 19.2885 21.1772 18.554 22.4201 18.0594C23.663 17.5649 24.9912 17.3201 26.3287 17.3389L39.5246 17.5215L39.4951 19.5816C39.4798 20.4843 39.6428 21.3811 39.9748 22.2206C40.3069 23.0601 40.8013 23.8259 41.4299 24.4739C42.0585 25.1219 42.8087 25.6395 43.6378 25.9969C44.4668 26.3544 45.3582 26.5447 46.2609 26.557L92.7272 26.4979C93.6276 26.5103 94.5216 26.3452 95.3581 26.012C96.1947 25.6788 96.9574 25.184 97.6027 24.556C98.248 23.9279 98.7631 23.1788 99.1188 22.3516C99.4745 21.5243 99.6637 20.6351 99.6756 19.7347L99.7025 17.7042L110.446 17.8519C113.145 17.8901 115.719 18.9981 117.601 20.9325C119.484 22.8669 120.521 25.4695 120.486 28.1685L117.961 208.724L117.636 232.013Z" fill="#BBB5B4"/>
<path d="M67.2996 160.782C96.064 160.782 119.382 137.464 119.382 108.7C119.382 79.9353 96.064 56.6172 67.2996 56.6172C38.5352 56.6172 15.217 79.9353 15.217 108.7C15.217 137.464 38.5352 160.782 67.2996 160.782Z" fill="white"/>
<path d="M78.9243 131.895L104.446 138.647L112.528 155.84L66.4804 155.171L20.4331 154.502L29.0119 137.551L54.7161 131.543" fill="#00205C"/>
<path d="M78.6448 87.4678C83.5325 87.4678 87.4948 83.5054 87.4948 78.6177C87.4948 73.7299 83.5325 69.7676 78.6448 69.7676C73.757 69.7676 69.7947 73.7299 69.7947 78.6177C69.7947 83.5054 73.757 87.4678 78.6448 87.4678Z" fill="#00205C"/>
<path d="M67.759 85.7685C72.6468 85.7685 76.6091 81.8062 76.6091 76.9184C76.6091 72.0307 72.6468 68.0684 67.759 68.0684C62.8713 68.0684 58.9089 72.0307 58.9089 76.9184C58.9089 81.8062 62.8713 85.7685 67.759 85.7685Z" fill="#00205C"/>
<path d="M85.0777 115.476C89.3751 115.476 92.8588 111.993 92.8588 107.695C92.8588 103.398 89.3751 99.9141 85.0777 99.9141C80.7804 99.9141 77.2966 103.398 77.2966 107.695C77.2966 111.993 80.7804 115.476 85.0777 115.476Z" fill="#00205C"/>
<path d="M86.1656 125.66C90.463 125.66 93.9467 122.176 93.9467 117.879C93.9467 113.581 90.463 110.098 86.1656 110.098C81.8682 110.098 78.3845 113.581 78.3845 117.879C78.3845 122.176 81.8682 125.66 86.1656 125.66Z" fill="#00205C"/>
<path d="M77.1514 125.531C81.4488 125.531 84.9325 122.047 84.9325 117.75C84.9325 113.452 81.4488 109.969 77.1514 109.969C72.8541 109.969 69.3704 113.452 69.3704 117.75C69.3704 122.047 72.8541 125.531 77.1514 125.531Z" fill="#00205C"/>
<path d="M90.4979 103.509C94.7953 103.509 98.279 100.026 98.279 95.7283C98.279 91.431 94.7953 87.9473 90.4979 87.9473C86.2005 87.9473 82.7168 91.431 82.7168 95.7283C82.7168 100.026 86.2005 103.509 90.4979 103.509Z" fill="#00205C"/>
<path d="M64.818 129.429C69.1153 129.429 72.599 125.946 72.599 121.648C72.599 117.351 69.1153 113.867 64.818 113.867C60.5206 113.867 57.0369 117.351 57.0369 121.648C57.0369 125.946 60.5206 129.429 64.818 129.429Z" fill="#00205C"/>
<path d="M89.3322 92.0545C92.9042 92.0545 95.7999 89.1588 95.7999 85.5868C95.7999 82.0148 92.9042 79.1191 89.3322 79.1191C85.7602 79.1191 82.8645 82.0148 82.8645 85.5868C82.8645 89.1588 85.7602 92.0545 89.3322 92.0545Z" fill="#00205C"/>
<path d="M45.0441 103.078C48.6161 103.078 51.5118 100.182 51.5118 96.6102C51.5118 93.0383 48.6161 90.1426 45.0441 90.1426C41.4721 90.1426 38.5764 93.0383 38.5764 96.6102C38.5764 100.182 41.4721 103.078 45.0441 103.078Z" fill="#00205C"/>
<path d="M52.0221 112.34C55.5941 112.34 58.4898 109.444 58.4898 105.872C58.4898 102.3 55.5941 99.4043 52.0221 99.4043C48.4501 99.4043 45.5544 102.3 45.5544 105.872C45.5544 109.444 48.4501 112.34 52.0221 112.34Z" fill="#00205C"/>
<path d="M47.2118 120.08C50.7838 120.08 53.6795 117.184 53.6795 113.612C53.6795 110.04 50.7838 107.145 47.2118 107.145C43.6398 107.145 40.7441 110.04 40.7441 113.612C40.7441 117.184 43.6398 120.08 47.2118 120.08Z" fill="#00205C"/>
<path d="M53.623 123.877C57.195 123.877 60.0907 120.981 60.0907 117.409C60.0907 113.837 57.195 110.941 53.623 110.941C50.051 110.941 47.1553 113.837 47.1553 117.409C47.1553 120.981 50.051 123.877 53.623 123.877Z" fill="#00205C"/>
<path d="M53.7763 96.7372C61.4514 96.7372 67.6732 90.5153 67.6732 82.8403C67.6732 75.1652 61.4514 68.9434 53.7763 68.9434C46.1012 68.9434 39.8794 75.1652 39.8794 82.8403C39.8794 90.5153 46.1012 96.7372 53.7763 96.7372Z" fill="#00205C"/>
<path d="M67.6568 112.565C78.8802 112.565 87.9784 103.467 87.9784 92.2435C87.9784 81.0202 78.8802 71.9219 67.6568 71.9219C56.4335 71.9219 47.3352 81.0202 47.3352 92.2435C47.3352 103.467 56.4335 112.565 67.6568 112.565Z" fill="#00205C"/>
<path d="M74.5119 112.668L59.6899 112.453L59.4258 130.686L74.2478 130.901L74.5119 112.668Z" fill="#F6BFBE"/>
<path d="M74.4462 116.813C74.4913 113.698 71.2093 111.125 67.1156 111.066C63.0218 111.007 59.6666 113.484 59.6215 116.598C59.5764 119.713 62.8584 122.286 66.9522 122.346C71.0459 122.405 74.4011 119.928 74.4462 116.813Z" fill="#EB9696"/>
<path d="M67.1494 119.014C63.7099 118.964 60.4255 117.575 57.9947 115.141C55.5639 112.707 54.1786 109.421 54.1334 105.982L53.9723 93.6748C53.9495 91.91 54.2806 90.1586 54.9461 88.5239C55.6115 86.8892 56.5978 85.4044 57.8467 84.1573C59.0955 82.9102 60.5817 81.926 62.2173 81.2628C63.8529 80.5997 65.6049 80.271 67.3696 80.2963H68.0518C69.8167 80.322 71.5585 80.7012 73.1743 81.4115C74.7901 82.1219 76.2472 83.1489 77.4593 84.4319C78.6715 85.7149 79.6141 87.2279 80.2316 88.8814C80.8491 90.5349 81.1289 92.2954 81.0544 94.0589L80.536 106.355C80.3936 109.793 78.9149 113.04 76.4146 115.404C73.9144 117.769 70.5901 119.064 67.1494 119.014V119.014Z" fill="#F6BFBE"/>
<path d="M68.0517 79.5003C68.0517 79.5003 68.5888 102.387 49.9003 102.116C49.9003 102.116 45.5168 78.3668 68.0624 79.5003" fill="#00205C"/>
<path d="M68.0623 79.502C68.0623 79.502 67.1652 96.6918 81.2071 96.8905C81.2071 96.8905 85.6819 79.7571 68.0623 79.502Z" fill="#00205C"/>
<path d="M81.6133 133.989C81.6479 131.604 75.2587 129.578 67.3426 129.463C59.4266 129.349 52.9814 131.189 52.9468 133.574C52.9123 135.959 59.3015 137.986 67.2175 138.1C75.1335 138.215 81.5788 136.374 81.6133 133.989Z" fill="#F6BFBE"/>
<path d="M65.7119 227.039C70.662 227.039 74.6748 223.026 74.6748 218.076C74.6748 213.126 70.662 209.113 65.7119 209.113C60.7618 209.113 56.749 213.126 56.749 218.076C56.749 223.026 60.7618 227.039 65.7119 227.039Z" fill="white"/>
<path d="M65.7148 229.184H65.551C62.632 229.123 59.8543 227.915 57.819 225.822C55.7837 223.728 54.6543 220.918 54.6751 217.998C54.6959 215.079 55.8653 212.285 57.9303 210.22C59.9953 208.156 62.7899 206.988 65.7095 206.969H65.8733C68.7924 207.03 71.57 208.238 73.6053 210.331C75.6406 212.424 76.7701 215.235 76.7492 218.155C76.7284 221.074 75.559 223.868 73.494 225.932C71.429 227.996 68.6345 229.164 65.7148 229.184V229.184ZM65.7148 207.235C63.5775 207.235 61.4879 207.867 59.7088 209.051C57.9296 210.236 56.5403 211.92 55.7155 213.891C54.8906 215.863 54.667 218.035 55.0728 220.133C55.4786 222.232 56.4957 224.163 57.9962 225.685C59.4967 227.208 61.4137 228.252 63.5061 228.688C65.5986 229.123 67.7731 228.931 69.7565 228.134C71.7398 227.338 73.4433 225.972 74.653 224.21C75.8627 222.448 76.5245 220.368 76.5552 218.231V218.231C76.5961 215.357 75.4938 212.584 73.4906 210.522C71.4875 208.461 68.7475 207.279 65.8733 207.237L65.7148 207.235Z" fill="white"/>
<path d="M66.6686 173.895C77.0063 173.895 85.3867 165.515 85.3867 155.177C85.3867 144.839 77.0063 136.459 66.6686 136.459C56.3308 136.459 47.9504 144.839 47.9504 155.177C47.9504 165.515 56.3308 173.895 66.6686 173.895Z" fill="#79C68C"/>
<path d="M60.3538 154.116L56.8972 157.496L64.7825 165.56L68.239 162.179L60.3538 154.116Z" fill="white"/>
<path d="M78.3481 152.232L74.874 148.68L61.3723 161.883L64.8464 165.436L78.3481 152.232Z" fill="white"/>
<path d="M214.276 249.456C193.019 249.456 175.725 232.165 175.725 210.908C175.725 189.652 193.019 172.357 214.276 172.357C235.532 172.357 252.824 189.652 252.824 210.908C252.824 232.165 235.532 249.456 214.276 249.456ZM214.276 175.057C194.499 175.057 178.411 191.145 178.411 210.922C178.411 230.698 194.499 246.784 214.276 246.784C234.052 246.784 250.138 230.69 250.138 210.908C250.138 191.127 234.049 175.043 214.276 175.043V175.057Z" fill="#ED2224"/>
<path d="M235.932 222.413C235.877 222.405 235.826 222.381 235.786 222.343C235.745 222.306 235.717 222.257 235.706 222.203C235.695 222.149 235.7 222.092 235.722 222.042C235.743 221.991 235.78 221.948 235.827 221.919C241.468 219.415 245.341 213.251 245.711 208.975C245.824 207.648 245.666 205.87 244.25 204.922C240.221 202.236 236.152 206.064 236.112 206.101C236.06 206.129 236.001 206.138 235.943 206.129C235.886 206.12 235.833 206.092 235.792 206.05C235.752 206.007 235.726 205.953 235.719 205.895C235.713 205.837 235.725 205.778 235.755 205.728C235.798 205.685 240.184 201.576 244.538 204.493C245.805 205.344 246.418 206.95 246.224 209.018C245.843 213.442 241.841 219.81 236.037 222.389C236.004 222.405 235.968 222.413 235.932 222.413V222.413Z" fill="#D8D9D8"/>
<path d="M192.195 222.412C192.159 222.412 192.123 222.404 192.09 222.388C186.288 219.81 182.284 213.442 181.902 209.018C181.722 206.95 182.324 205.344 183.592 204.492C187.943 201.575 192.329 205.687 192.375 205.728C192.421 205.777 192.446 205.843 192.446 205.91C192.446 205.978 192.421 206.043 192.375 206.093C192.325 206.139 192.26 206.165 192.192 206.165C192.124 206.165 192.059 206.139 192.01 206.093C191.843 205.934 187.879 202.228 183.871 204.914C182.456 205.862 182.294 207.64 182.41 208.967C182.778 213.243 186.662 219.407 192.292 221.91C192.353 221.94 192.4 221.992 192.424 222.055C192.449 222.118 192.448 222.188 192.423 222.251C192.404 222.297 192.372 222.336 192.332 222.364C192.291 222.392 192.244 222.409 192.195 222.412Z" fill="#D8D9D8"/>
<path d="M214.063 231.313C205.098 231.313 196.795 228.227 191.856 223.062L190.989 222.152V204.693L193.693 204.32C195.466 204.073 200.677 202.977 203.494 200.882C207.888 197.616 210.915 196.233 213.942 196.117H214.063H214.184C217.214 196.233 220.241 197.616 224.635 200.882C227.439 202.969 232.663 204.073 234.439 204.32L237.124 204.699V222.138L236.254 223.049C231.331 228.227 223.029 231.313 214.063 231.313Z" fill="#63CBE7"/>
<g style="mix-blend-mode:multiply">
<g style="mix-blend-mode:multiply">
<path d="M223.239 202.848C218.928 199.641 216.387 198.551 214.063 198.473C211.74 198.561 209.202 199.641 204.888 202.848C200.575 206.055 193.033 207.094 193.033 207.094V221.287C202.823 231.528 225.304 231.528 235.097 221.287V207.094C235.097 207.094 227.549 206.055 223.239 202.848Z" fill="#63CBE7"/>
</g>
</g>
<g style="mix-blend-mode:multiply" opacity="0.7">
<g style="mix-blend-mode:multiply" opacity="0.7">
<path d="M233.821 219.404C224.624 229.023 203.505 229.023 194.306 219.404L193.033 207.084V221.284C202.823 231.526 225.304 231.526 235.097 221.284V207.092L233.821 219.404Z" fill="#63CBE7"/>
</g>
</g>
<g style="mix-blend-mode:multiply">
<g style="mix-blend-mode:multiply">
<path d="M196.328 209.736C200.51 208.519 204.853 207.942 209.191 207.644C214.268 207.336 219.363 207.575 224.388 208.358C225.629 208.586 227.444 208.895 228.653 209.215C229.357 209.384 230.061 209.556 230.762 209.736C219.419 207.55 207.663 207.456 196.328 209.736V209.736Z" fill="#63CBE7"/>
</g>
<g style="mix-blend-mode:multiply">
<path d="M196.328 214.492C206.325 215.515 216.446 215.746 226.464 214.908C227.001 214.876 228.076 214.777 228.613 214.712C229.329 214.632 230.045 214.558 230.762 214.492C225.082 215.527 219.317 216.02 213.545 215.964C207.774 215.973 202.014 215.48 196.328 214.492V214.492Z" fill="#63CBE7"/>
</g>
<g style="mix-blend-mode:multiply">
<path d="M197.171 220.092C205.946 223.28 215.774 224.04 224.785 221.405C226.083 221.056 227.334 220.57 228.594 220.092C226.173 221.296 223.61 222.191 220.966 222.756C212.952 224.392 204.625 223.46 197.171 220.092V220.092Z" fill="#63CBE7"/>
</g>
</g>
<path d="M245.154 190.94L181.143 230.854L182.566 233.137L246.578 193.224L245.154 190.94Z" fill="#ED2224"/>
<path d="M214.276 77.9026C193.019 77.9026 175.725 60.608 175.725 39.3517C175.725 18.0954 193.019 0.800781 214.276 0.800781C235.532 0.800781 252.824 18.0954 252.824 39.3517C252.824 60.608 235.532 77.9026 214.276 77.9026ZM214.276 3.48669C194.499 3.48669 178.411 19.5753 178.411 39.3517C178.411 59.1281 194.499 75.2167 214.276 75.2167C234.052 75.2167 250.138 59.1281 250.138 39.3517C250.138 19.5753 234.049 3.48669 214.276 3.48669V3.48669Z" fill="#ED2224"/>
<path d="M240.538 51.0002C233.16 51.2977 225.81 49.9069 219.051 46.9338C220.22 45.1338 221.781 43.6216 223.617 42.5101C225.21 41.5408 227.035 41.0167 228.9 40.9925C234.229 40.9495 239.241 45.0563 240.538 51.0002Z" fill="#167D3E"/>
<path d="M207.15 38.7855C206.102 39.9888 204.523 41.7535 202.506 43.8001C196.68 49.7092 194.448 50.6385 192.836 51.0521C191.55 51.3744 188.67 52.0969 186.892 50.4961C185.114 48.8953 185.412 45.8441 185.966 44.1815C187.199 40.4804 191.622 37.9744 197.107 37.6816L207.15 38.7855Z" fill="#167D3E"/>
<path d="M240.759 51.0435C239.684 50.3881 238.553 49.714 237.342 49.0317C235.268 47.8661 232.98 46.6762 230.482 45.5159C220.572 40.9042 209.972 37.949 199.105 36.7679V36.7679L198.979 36.7517C202.202 23.3463 215.382 15.7559 226.435 18.4499L226.835 18.5547C227.52 18.7371 228.193 18.9604 228.852 19.2235C239.765 23.5182 246.522 37.8906 240.759 51.0435Z" fill="#45B649"/>
<g opacity="0.23">
<path opacity="0.23" d="M226.432 18.4403C223.641 18.5209 213.002 19.2595 206.306 27.6691C204.438 30.0302 203.051 32.7349 202.224 35.6301C201.213 36.0826 200.171 36.4597 199.105 36.7582L198.979 36.7421C202.197 23.334 215.379 15.7463 226.432 18.4403Z" fill="white"/>
</g>
<path d="M230.547 45.6578C229.177 47.3794 225.98 50.8738 220.703 52.5283C218.382 53.2589 216.096 53.9734 213.451 53.2723C208.911 52.061 209.185 48.1879 202.495 43.8018C198.952 41.4812 196.492 40.8312 195.659 40.6539C193.281 40.1554 190.825 40.1646 188.45 40.6808C188.861 40.3155 189.345 39.9046 189.906 39.4802C190.059 39.3674 190.215 39.2492 190.379 39.1337C191.079 38.6322 191.809 38.1738 192.565 37.7612C192.729 37.6672 192.895 37.5812 193.067 37.4926C193.239 37.404 193.371 37.3368 193.532 37.2616C194.171 36.9572 194.827 36.6882 195.495 36.4558C195.683 36.3887 195.879 36.3215 196.092 36.2517C196.304 36.1819 196.495 36.1201 196.715 36.0556C196.935 35.9912 197.136 35.9348 197.359 35.8757C199.097 35.4105 200.882 35.1465 202.68 35.0887C204.885 35.0243 207.947 35.3573 217.165 39.174C219.121 39.9798 221.312 40.9467 223.697 42.0989L223.942 42.2171C224.44 42.4589 224.945 42.7095 225.457 42.9692C225.537 43.0068 225.615 43.0444 225.696 43.09C226.077 43.2807 226.461 43.4795 226.853 43.6809L227.087 43.8018C227.511 44.0247 227.944 44.253 228.379 44.4867C228.452 44.527 228.529 44.5673 228.607 44.6049C229.241 44.9353 229.897 45.2925 230.547 45.6578Z" fill="#17A349"/>
<path d="M240.758 51.0403C237.444 48.9989 234.012 47.1532 230.482 45.5126C232.758 41.4334 233.813 36.7865 233.524 32.1246C233.235 27.4626 231.614 22.9818 228.852 19.2148C239.765 23.515 246.522 37.8873 240.758 51.0403Z" fill="#45B649"/>
<g opacity="0.42">
<path opacity="0.42" d="M229.306 20.5594C229.306 20.3929 229.037 20.4251 229.037 20.589C229.043 20.6888 229.063 20.7873 229.096 20.8817C229.126 20.9838 229.198 21.0724 229.22 21.1772C229.249 21.3383 229.504 21.3088 229.472 21.1449C229.448 20.9381 229.311 20.7797 229.306 20.5594Z" fill="white"/>
</g>
<g opacity="0.42">
<path opacity="0.42" d="M230.02 22.0594C229.988 21.986 229.958 21.9108 229.931 21.8338C229.875 21.678 229.636 21.772 229.692 21.9278C229.718 22.0047 229.749 22.0801 229.784 22.1534C229.851 22.3038 230.09 22.2098 230.02 22.0594Z" fill="white"/>
</g>
<g opacity="0.42">
<path opacity="0.42" d="M230.547 23.2071C230.49 23.0827 230.453 22.9505 230.436 22.815C230.436 22.6511 230.168 22.6834 230.168 22.8472C230.179 22.9648 230.209 23.0799 230.256 23.1883C230.273 23.234 230.286 23.2796 230.305 23.3253C230.324 23.371 230.353 23.4113 230.35 23.4462C230.332 23.61 230.584 23.6476 230.603 23.4838C230.606 23.3884 230.586 23.2938 230.547 23.2071Z" fill="white"/>
</g>
<g opacity="0.42">
<path opacity="0.42" d="M231.098 24.4879C231.087 24.4591 231.079 24.4294 231.074 24.3992C231.07 24.3408 231.053 24.284 231.025 24.2327C230.997 24.1895 230.978 24.1411 230.969 24.0904C230.947 24.0125 230.883 23.9802 230.888 23.8889C230.888 23.7251 230.644 23.6875 230.636 23.854C230.629 23.9094 230.634 23.9656 230.649 24.0192C230.665 24.0728 230.692 24.1226 230.727 24.1656C230.765 24.316 230.832 24.4476 230.869 24.6034C230.874 24.6309 230.887 24.6563 230.907 24.676C230.927 24.6958 230.952 24.7089 230.98 24.7135H231.015C231.157 24.7511 231.203 24.5577 231.098 24.4879Z" fill="white"/>
</g>
<g opacity="0.42">
<path opacity="0.42" d="M231.634 25.6501C231.594 25.5964 231.562 25.5373 231.519 25.4863C231.476 25.4352 231.425 25.4111 231.43 25.3815C231.462 25.2204 231.21 25.1828 231.178 25.3439C231.171 25.3844 231.174 25.4257 231.187 25.4648C231.199 25.5039 231.22 25.5397 231.248 25.5695C231.312 25.6447 231.368 25.7199 231.428 25.8005C231.522 25.9348 231.728 25.7844 231.634 25.6501Z" fill="white"/>
</g>
<g opacity="0.42">
<path opacity="0.42" d="M231.995 26.8719C231.954 26.8049 231.921 26.7338 231.895 26.6597C231.855 26.5916 231.835 26.5132 231.839 26.4341C231.839 26.2703 231.57 26.3025 231.57 26.4663C231.569 26.5604 231.594 26.6531 231.64 26.7349C231.674 26.8294 231.719 26.9196 231.774 27.0035C231.898 27.1459 232.105 26.9955 231.995 26.8719Z" fill="white"/>
</g>
<g opacity="0.42">
<path opacity="0.42" d="M232.322 27.9375C232.267 27.8662 232.239 27.7776 232.244 27.6877C232.244 27.5266 231.991 27.489 231.991 27.6528C231.984 27.7374 231.991 27.8226 232.01 27.9053C232.021 27.9392 232.037 27.9716 232.056 28.002C232.056 28.0181 232.128 28.0879 232.126 28.1067C232.109 28.2679 232.362 28.3055 232.394 28.1416C232.397 28.1044 232.392 28.0671 232.379 28.0319C232.367 27.9968 232.347 27.9646 232.322 27.9375V27.9375Z" fill="white"/>
</g>
<g opacity="0.42">
<path opacity="0.42" d="M232.607 28.976C232.577 28.8148 232.322 28.8444 232.338 29.0082C232.354 29.1721 232.486 29.3171 232.475 29.4729C232.464 29.6287 232.72 29.6717 232.744 29.5078C232.721 29.3254 232.675 29.1467 232.607 28.976Z" fill="white"/>
</g>
<g opacity="0.42">
<path opacity="0.42" d="M232.924 30.7649C232.916 30.6594 232.916 30.5535 232.924 30.448C232.924 30.2841 232.671 30.2465 232.655 30.4104C232.655 30.5232 232.655 30.6387 232.655 30.7515C232.655 30.8643 232.698 30.9664 232.703 31.0765C232.703 31.243 232.972 31.2108 232.972 31.0469C232.964 30.9502 232.937 30.8562 232.924 30.7649Z" fill="white"/>
</g>
<g opacity="0.42">
<path opacity="0.42" d="M232.76 32.0304V32.5676C232.76 32.7314 233.029 32.6992 233.029 32.538V32.0008C233.015 31.8343 232.76 31.8665 232.76 32.0304Z" fill="white"/>
</g>
<g opacity="0.42">
<path opacity="0.42" d="M233.058 33.5933C233.136 33.5155 233.096 33.3489 232.961 33.3785H232.924C232.896 33.3835 232.871 33.3967 232.852 33.4164C232.832 33.436 232.819 33.4612 232.814 33.4886C232.784 33.6256 232.814 33.7572 232.795 33.9022C232.775 34.0285 232.764 34.1559 232.76 34.2836C232.76 34.4475 233.013 34.4152 233.029 34.2514C233.036 34.1289 233.051 34.007 233.072 33.8861C233.066 33.7921 233.05 33.6927 233.058 33.5933Z" fill="white"/>
</g>
<g opacity="0.42">
<path opacity="0.42" d="M232.805 35.1544C232.805 35.2995 232.741 35.4499 232.725 35.5976C232.724 35.6594 232.715 35.7208 232.698 35.7803C232.677 35.8371 232.667 35.8971 232.668 35.9575C232.668 36.1214 232.937 36.0918 232.937 35.9253C232.937 35.8796 232.974 35.8259 232.985 35.7776C232.996 35.7292 232.985 35.646 233.001 35.5788C233.032 35.4514 233.056 35.3223 233.071 35.192C233.06 35.0336 232.808 34.996 232.805 35.1544Z" fill="white"/>
</g>
<g opacity="0.42">
<path opacity="0.42" d="M232.714 36.6833C232.714 36.7263 232.671 36.7854 232.666 36.8338C232.66 36.8821 232.666 36.9976 232.644 37.0809C232.61 37.2173 232.588 37.3567 232.58 37.4972C232.58 37.6637 232.848 37.6315 232.832 37.4676C232.845 37.3952 232.861 37.3235 232.881 37.2528C232.881 37.1829 232.902 37.1158 232.913 37.0459C232.909 36.9762 232.909 36.9062 232.913 36.8364C232.938 36.7786 232.952 36.7167 232.956 36.6538C232.964 36.4953 232.711 36.5195 232.714 36.6833Z" fill="white"/>
</g>
<g opacity="0.42">
<path opacity="0.42" d="M232.51 38.2179H232.472C232.445 38.2222 232.419 38.2352 232.399 38.255C232.379 38.2748 232.366 38.3004 232.362 38.3281C232.335 38.4597 232.284 38.5966 232.247 38.7148C232.222 38.8266 232.175 38.9325 232.11 39.0264C232.005 39.1526 232.204 39.3138 232.308 39.1875C232.391 39.0782 232.449 38.9529 232.48 38.8196C232.518 38.6933 232.561 38.5671 232.593 38.4409C232.69 38.3791 232.65 38.1884 232.51 38.2179Z" fill="white"/>
</g>
<g opacity="0.42">
<path opacity="0.42" d="M232.045 39.9246C232.027 39.9683 232.012 40.0132 231.999 40.0589C231.998 40.0768 231.998 40.0947 231.999 40.1126C231.968 40.1371 231.941 40.1678 231.922 40.2029C231.902 40.2381 231.89 40.2768 231.887 40.3167C231.882 40.3772 231.869 40.4369 231.849 40.494C231.823 40.5485 231.81 40.6083 231.811 40.6686C231.811 40.8324 232.08 40.8029 232.08 40.639C232.08 40.6068 232.123 40.545 232.131 40.5101C232.139 40.4752 232.131 40.3651 232.166 40.3221C232.201 40.2791 232.238 40.2684 232.254 40.2039C232.271 40.1395 232.273 40.0857 232.297 40.0266C232.34 39.8736 232.107 39.7688 232.045 39.9246Z" fill="white"/>
</g>
<g opacity="0.42">
<path opacity="0.42" d="M231.476 41.4294C231.4 41.5317 231.345 41.6475 231.312 41.7705C231.303 41.8901 231.266 42.006 231.205 42.1089C231.095 42.2325 231.293 42.391 231.404 42.2701C231.471 42.1842 231.517 42.0826 231.535 41.9747C231.553 41.838 231.601 41.7069 231.675 41.5906C231.772 41.4563 231.57 41.2951 231.476 41.4294Z" fill="white"/>
</g>
<g opacity="0.42">
<path opacity="0.42" d="M230.971 42.7863H230.933C230.906 42.7904 230.881 42.803 230.861 42.8223C230.841 42.8416 230.828 42.8666 230.823 42.8938C230.786 43.106 230.619 43.294 230.635 43.5088C230.635 43.6727 230.904 43.6431 230.888 43.4766C230.888 43.396 230.96 43.2913 230.992 43.208C231.018 43.1394 231.041 43.0695 231.059 42.9985C231.151 42.9448 231.121 42.7568 230.971 42.7863Z" fill="white"/>
</g>
<g opacity="0.42">
<path opacity="0.42" d="M230.281 44.3077C230.247 44.4415 230.192 44.5692 230.12 44.6864C230.009 44.8099 230.211 44.9684 230.318 44.8449C230.408 44.7115 230.475 44.5646 230.517 44.4098C230.528 44.3788 230.528 44.3447 230.515 44.3144C230.502 44.2841 230.477 44.26 230.447 44.2469C230.417 44.2338 230.383 44.2328 230.352 44.2442C230.321 44.2555 230.295 44.2782 230.281 44.3077V44.3077Z" fill="white"/>
</g>
<g opacity="0.42">
<path opacity="0.42" d="M230.684 21.2202C230.554 21.0671 230.468 20.8813 230.437 20.683C230.407 20.5219 230.152 20.5514 230.168 20.7153C230.207 20.9537 230.309 21.1773 230.464 21.3625C230.585 21.4941 230.794 21.3437 230.684 21.2202Z" fill="white"/>
</g>
<g opacity="0.42">
<path opacity="0.42" d="M231.135 22.1248C231.095 22.0818 231.095 22.02 231.07 21.9636C231.046 21.9072 230.976 21.8535 230.979 21.8132C230.979 21.6494 230.735 21.6118 230.711 21.7756C230.708 21.8686 230.74 21.9592 230.799 22.0308C230.848 22.1087 230.85 22.2053 230.917 22.2779C231.038 22.3987 231.248 22.2483 231.135 22.1248Z" fill="white"/>
</g>
<g opacity="0.42">
<path opacity="0.42" d="M231.659 23.1435C231.632 23.0253 231.549 22.934 231.522 22.8158C231.484 22.6573 231.229 22.6869 231.253 22.848C231.29 22.9479 231.332 23.0457 231.379 23.1408C231.401 23.1999 231.404 23.2643 231.422 23.3234C231.441 23.3825 231.481 23.4148 231.481 23.447C231.481 23.6108 231.726 23.6484 231.734 23.4846C231.725 23.368 231.699 23.2532 231.659 23.1435Z" fill="white"/>
</g>
<g opacity="0.42">
<path opacity="0.42" d="M232.419 24.4591C232.316 24.2871 232.243 24.0992 232.201 23.9032C232.201 23.7366 231.933 23.7689 231.933 23.9327C231.975 24.1513 232.054 24.3611 232.166 24.5532C232.179 24.5866 232.204 24.6138 232.237 24.6287C232.269 24.6435 232.306 24.6449 232.34 24.6324C232.373 24.6199 232.4 24.5947 232.415 24.5622C232.43 24.5297 232.431 24.4926 232.419 24.4591V24.4591Z" fill="white"/>
</g>
<g opacity="0.42">
<path opacity="0.42" d="M232.776 25.3944C232.768 25.3647 232.757 25.3359 232.744 25.3084C232.725 25.2681 232.698 25.2305 232.679 25.1929C232.717 25.107 232.679 24.9888 232.556 25.013H232.515C232.482 25.0183 232.451 25.0362 232.43 25.0632C232.409 25.0901 232.399 25.124 232.402 25.158C232.421 25.2842 232.515 25.3782 232.542 25.5045C232.546 25.5319 232.558 25.5575 232.578 25.5773C232.597 25.5971 232.622 25.6102 232.65 25.6146H232.687C232.829 25.6549 232.875 25.4642 232.776 25.3944Z" fill="white"/>
</g>
<g opacity="0.42">
<path opacity="0.42" d="M233.079 26.523C233.073 26.4739 233.059 26.426 233.039 26.3806C233.023 26.3457 232.964 26.2839 232.969 26.2409C232.985 26.0771 232.73 26.0395 232.701 26.2033C232.704 26.2995 232.735 26.3927 232.789 26.4719C232.807 26.5243 232.82 26.5782 232.827 26.6331C232.853 26.697 232.872 26.7637 232.883 26.8318C232.883 26.9957 233.128 27.0333 233.136 26.8668C233.132 26.7502 233.113 26.6346 233.079 26.523V26.523Z" fill="white"/>
</g>
<g opacity="0.42">
<path opacity="0.42" d="M233.539 28.1705C233.475 28.0243 233.447 27.8651 233.456 27.7058C233.456 27.542 233.187 27.5742 233.187 27.7354C233.179 27.9197 233.213 28.1033 233.287 28.2726C233.383 28.4069 233.622 28.3156 233.539 28.1705Z" fill="white"/>
</g>
<g opacity="0.42">
<path opacity="0.42" d="M233.772 28.9748C233.834 28.8217 233.598 28.7062 233.539 28.8727C233.498 29.0431 233.498 29.2206 233.539 29.3911C233.539 29.5576 233.807 29.5254 233.807 29.3615C233.807 29.1977 233.721 29.1144 233.772 28.9748Z" fill="white"/>
</g>
<g opacity="0.42">
<path opacity="0.42" d="M234.076 30.7139C234.03 30.6656 234.033 30.5716 234.017 30.5098C233.994 30.4213 233.976 30.3317 233.963 30.2412C233.961 30.2246 233.956 30.2086 233.948 30.194C233.939 30.1795 233.928 30.1666 233.915 30.1563C233.902 30.1459 233.887 30.1383 233.871 30.1337C233.855 30.1292 233.838 30.1278 233.822 30.1298C233.805 30.1317 233.789 30.1369 233.775 30.145C233.76 30.1532 233.747 30.1641 233.737 30.1772C233.727 30.1903 233.719 30.2053 233.714 30.2213C233.71 30.2374 233.708 30.2542 233.71 30.2708C233.71 30.3916 233.759 30.5044 233.78 30.6226C233.784 30.7137 233.815 30.8015 233.869 30.8751C233.979 30.9879 234.186 30.8348 234.076 30.7139Z" fill="white"/>
</g>
<g opacity="0.42">
<path opacity="0.42" d="M234.235 31.5435C234.235 31.3797 233.979 31.4119 233.982 31.5757C233.986 31.6662 233.999 31.7561 234.02 31.8443C234.047 31.9224 234.064 32.0036 234.071 32.086C234.071 32.2499 234.315 32.2875 234.339 32.1236C234.364 31.9598 234.237 31.7396 234.235 31.5435Z" fill="white"/>
</g>
<g opacity="0.42">
<path opacity="0.42" d="M233.936 33.2942V33.7481C233.936 33.912 234.189 33.8798 234.189 33.7159V33.2754C234.189 33.1008 233.936 33.1331 233.936 33.2942Z" fill="white"/>
</g>
<g opacity="0.42">
<path opacity="0.42" d="M233.891 34.8316V35.3285C233.891 35.4923 234.159 35.4628 234.159 35.2989V34.7994C234.146 34.6355 233.891 34.6677 233.891 34.8316Z" fill="white"/>
</g>
<g opacity="0.42">
<path opacity="0.42" d="M233.899 36.0326C233.85 36.1825 233.831 36.3402 233.842 36.4973C233.842 36.688 233.808 36.8707 233.8 37.0587C233.791 37.2467 234.047 37.2601 234.068 37.0963C234.089 36.9324 234.108 36.7928 234.114 36.6397C234.095 36.4706 234.107 36.2997 234.149 36.1347C234.194 35.9789 233.958 35.8769 233.899 36.0326Z" fill="white"/>
</g>
<g opacity="0.42">
<path opacity="0.42" d="M233.539 37.8604C233.539 37.89 233.512 37.933 233.504 37.9625C233.497 38.0178 233.497 38.0737 233.504 38.129C233.504 38.2553 233.464 38.3788 233.458 38.5051C233.453 38.6313 233.703 38.7065 233.711 38.5427C233.719 38.3788 233.754 38.2902 233.759 38.1613C233.754 38.1015 233.761 38.0414 233.778 37.984C233.795 37.9349 233.803 37.883 233.802 37.8309C233.775 37.6644 233.523 37.6966 233.539 37.8604Z" fill="white"/>
</g>
<g opacity="0.42">
<path opacity="0.42" d="M233.348 39.3203C233.324 39.4627 233.246 39.5889 233.208 39.7312C233.171 39.8736 233.104 39.9998 233.077 40.1341C233.05 40.2684 233.297 40.3329 233.329 40.1717C233.386 39.9031 233.552 39.6346 233.598 39.366C233.63 39.1833 233.378 39.1592 233.348 39.3203Z" fill="white"/>
</g>
<g opacity="0.42">
<path opacity="0.42" d="M232.851 41.1295C232.851 41.2155 232.819 41.2987 232.8 41.3847C232.795 41.4487 232.775 41.5105 232.741 41.5647C232.628 41.6855 232.829 41.8333 232.942 41.7258C232.996 41.6534 233.029 41.5682 233.039 41.4787C233.063 41.3739 233.087 41.2719 233.103 41.1644C233.108 41.131 233.099 41.097 233.079 41.0701C233.058 41.0431 233.028 41.0254 232.995 41.0207C232.961 41.0161 232.927 41.025 232.9 41.0454C232.873 41.0658 232.855 41.096 232.851 41.1295V41.1295Z" fill="white"/>
</g>
<g opacity="0.42">
<path opacity="0.42" d="M232.336 42.5583C232.264 42.6728 232.21 42.7979 232.177 42.929C232.12 43.0407 232.087 43.1634 232.08 43.2889C232.096 43.4527 232.349 43.4205 232.349 43.2567C232.349 43.1734 232.411 43.0713 232.435 42.9881C232.458 42.8931 232.496 42.8024 232.548 42.7195C232.628 42.5852 232.43 42.424 232.336 42.5583Z" fill="white"/>
</g>
<g opacity="0.42">
<path opacity="0.42" d="M231.801 44.0574C231.672 44.0977 231.626 44.2428 231.599 44.3609C231.549 44.5164 231.514 44.6766 231.495 44.839C231.495 45.0002 231.742 45.0378 231.747 44.8739C231.765 44.7446 231.794 44.6171 231.833 44.4925C231.833 44.4496 231.855 44.3072 231.895 44.2965C232.051 44.2481 231.957 44.0171 231.801 44.0574Z" fill="white"/>
</g>
<g opacity="0.42">
<path opacity="0.42" d="M231.205 45.3612C231.121 45.465 231.079 45.5961 231.087 45.7292C231.087 45.8931 231.339 45.8608 231.355 45.697C231.354 45.6333 231.376 45.5714 231.417 45.5224C231.438 45.4943 231.448 45.4588 231.443 45.4238C231.438 45.3888 231.419 45.3571 231.391 45.3357C231.363 45.3144 231.328 45.305 231.293 45.3098C231.258 45.3146 231.226 45.3331 231.205 45.3612V45.3612Z" fill="white"/>
</g>
<g opacity="0.37">
<path opacity="0.37" d="M228.618 44.5865C227.238 46.3902 225.514 47.9021 223.545 49.0344C222.323 49.7354 219.653 51.2691 216.561 51.2691C216.144 51.2698 215.728 51.2402 215.315 51.1804C213.365 50.9118 212.379 50.0738 210.596 48.5617C209.79 47.8821 208.802 47.0414 207.477 46.0396C203.255 42.8514 199.272 39.8432 194.424 39.2818C192.918 39.1128 191.395 39.178 189.909 39.4752C190.062 39.3624 190.218 39.2442 190.382 39.1287C191.728 38.909 193.098 38.8746 194.453 39.0267C199.369 39.5961 203.381 42.6258 207.631 45.8355C208.974 46.8427 209.959 47.6861 210.76 48.3656C212.567 49.8939 213.475 50.6647 215.35 50.928C218.842 51.4222 222.046 49.585 223.408 48.8114C225.335 47.7048 227.025 46.229 228.382 44.4683C228.463 44.5086 228.54 44.5516 228.618 44.5865Z" fill="white"/>
</g>
<g opacity="0.45">
<path opacity="0.45" d="M227.093 43.7868C225.547 45.5225 223.654 46.9135 221.535 47.8694C220.144 48.4925 218.312 49.3091 216.164 49.3091C215.789 49.3101 215.415 49.285 215.044 49.2339C212.895 48.9411 211.796 47.9151 210.115 46.3573C208.506 44.8241 206.778 43.4204 204.947 42.1592C202.433 40.4321 200.263 38.9361 197.12 38.1975C195.625 37.8465 194.089 37.6992 192.554 37.7597C192.718 37.6657 192.885 37.5797 193.057 37.4911C194.44 37.4774 195.82 37.6307 197.166 37.9477C200.354 38.7024 202.538 40.2065 205.082 41.947C206.929 43.2132 208.673 44.6241 210.298 46.1666C212 47.7459 213.029 48.6967 215.087 48.9787C217.646 49.3279 219.838 48.3475 221.439 47.6357C223.503 46.7043 225.351 45.3533 226.864 43.6687L227.093 43.7868Z" fill="white"/>
</g>
<g opacity="0.25">
<path opacity="0.25" d="M240.759 51.0403C239.684 50.3849 238.554 49.7107 237.342 49.0285C237.775 47.9139 243.06 33.7591 235.148 24.1408C233.425 22.068 231.278 20.3883 228.852 19.2148C239.765 23.515 246.523 37.8873 240.759 51.0403Z" fill="#3E1313"/>
</g>
<path d="M226.244 17.5273H226.225V20.831H226.244V17.5273Z" fill="#F99D3A"/>
<path d="M226.341 17.5273H226.244V20.831H226.341V17.5273Z" fill="#F99D3A"/>
<path d="M226.437 17.5273H226.341V20.831H226.437V17.5273Z" fill="#F99D3B"/>
<path d="M226.537 17.5273H226.44V20.831H226.537V17.5273Z" fill="#F89C3B"/>
<path d="M226.634 17.5273H226.537V20.831H226.634V17.5273Z" fill="#F89B3C"/>
<path d="M226.73 17.5273H226.633V20.831H226.73V17.5273Z" fill="#F89B3D"/>
<path d="M226.829 17.5273H226.733V20.831H226.829V17.5273Z" fill="#F89A3D"/>
<path d="M226.926 17.5273H226.829V20.831H226.926V17.5273Z" fill="#F8993E"/>
<path d="M227.023 17.5273H226.926V20.831H227.023V17.5273Z" fill="#F8983F"/>
<path d="M227.122 17.5273H227.025V20.831H227.122V17.5273Z" fill="#F8983F"/>
<path d="M227.219 17.5273H227.122V20.831H227.219V17.5273Z" fill="#F89740"/>
<path d="M227.315 17.5273H227.219V20.831H227.315V17.5273Z" fill="#F89641"/>
<path d="M227.415 17.5273H227.318V20.831H227.415V17.5273Z" fill="#F79641"/>
<path d="M227.512 17.5273H227.415V20.831H227.512V17.5273Z" fill="#F79542"/>
<path d="M227.608 17.5273H227.511V20.831H227.608V17.5273Z" fill="#F79443"/>
<path d="M227.705 17.5273H227.608V20.831H227.705V17.5273Z" fill="#F79443"/>
<path d="M227.804 17.5273H227.708V20.831H227.804V17.5273Z" fill="#F79344"/>
<path d="M227.901 17.5273H227.805V20.831H227.901V17.5273Z" fill="#F79244"/>
<path d="M227.998 17.5273H227.901V20.831H227.998V17.5273Z" fill="#F79145"/>
<path d="M228.097 17.5273H228V20.831H228.097V17.5273Z" fill="#F79146"/>
<path d="M228.194 17.5273H228.097V20.831H228.194V17.5273Z" fill="#F79046"/>
<path d="M228.29 17.5273H228.194V20.831H228.29V17.5273Z" fill="#F78F47"/>
<path d="M228.39 17.5273H228.293V20.831H228.39V17.5273Z" fill="#F78F47"/>
<path d="M228.487 17.5273H228.39V20.831H228.487V17.5273Z" fill="#F68E48"/>
<path d="M228.583 17.5273H228.487V20.831H228.583V17.5273Z" fill="#F68D48"/>
<path d="M228.683 17.5273H228.586V20.831H228.683V17.5273Z" fill="#F68D49"/>
<path d="M228.779 17.5273H228.683V20.831H228.779V17.5273Z" fill="#F68C49"/>
<path d="M228.876 17.5273H228.779V20.831H228.876V17.5273Z" fill="#F68B4A"/>
<path d="M228.975 17.5273H228.879V20.831H228.975V17.5273Z" fill="#F68B4B"/>
<path d="M229.072 17.5273H228.976V20.831H229.072V17.5273Z" fill="#F68A4B"/>
<path d="M229.169 17.5273H229.072V20.831H229.169V17.5273Z" fill="#F6894C"/>
<path d="M229.268 17.5273H229.171V20.831H229.268V17.5273Z" fill="#F6894C"/>
<path d="M229.365 17.5273H229.268V20.831H229.365V17.5273Z" fill="#F6884D"/>
<path d="M229.462 17.5273H229.365V20.831H229.462V17.5273Z" fill="#F6874D"/>
<path d="M229.561 17.5273H229.464V20.831H229.561V17.5273Z" fill="#F5864E"/>
<path d="M229.658 17.5273H229.561V20.831H229.658V17.5273Z" fill="#F5864E"/>
<path d="M229.754 17.5273H229.658V20.831H229.754V17.5273Z" fill="#F5854F"/>
<path d="M229.854 17.5273H229.757V20.831H229.854V17.5273Z" fill="#F5844F"/>
<path d="M229.951 17.5273H229.854V20.831H229.951V17.5273Z" fill="#F5844F"/>
<path d="M230.047 17.5273H229.95V20.831H230.047V17.5273Z" fill="#F58350"/>
<path d="M230.147 17.5273H230.05V20.831H230.147V17.5273Z" fill="#F58250"/>
<path d="M230.243 17.5273H230.146V20.831H230.243V17.5273Z" fill="#F58151"/>
<path d="M230.34 17.5273H230.243V20.831H230.34V17.5273Z" fill="#F58151"/>
<path d="M230.439 17.5273H230.343V20.831H230.439V17.5273Z" fill="#F48052"/>
<path d="M230.536 17.5273H230.439V20.831H230.536V17.5273Z" fill="#F47F52"/>
<path d="M230.799 17.5273H230.536V20.831H230.799V17.5273Z" fill="#F47F52"/>
<g opacity="0.23">
<path opacity="0.23" d="M229.365 18.1306C229.134 18.0795 228.897 18.0587 228.661 18.0689C228.271 18.085 227.485 18.1145 227.066 18.7323C226.9 18.9829 226.816 19.2782 226.824 19.5783C226.483 19.3823 226.23 19.1486 226.249 18.8961C226.297 18.3079 227.823 17.5398 229.018 17.9722C229.138 18.0139 229.254 18.067 229.365 18.1306V18.1306Z" fill="white"/>
</g>
<path d="M245.04 15.7145L181.203 55.666L182.628 57.9428L246.465 17.9913L245.04 15.7145Z" fill="#ED2224"/>
<path d="M214.276 163.677C193.019 163.677 175.725 146.385 175.725 125.129C175.725 103.873 193.019 86.5781 214.276 86.5781C235.532 86.5781 252.824 103.873 252.824 125.132C252.824 146.391 235.532 163.677 214.276 163.677ZM214.276 89.2775C194.499 89.2775 178.411 105.366 178.411 125.142C178.411 144.919 194.499 161.005 214.276 161.005C234.052 161.005 250.138 144.903 250.138 125.132C250.138 105.361 234.049 89.264 214.276 89.264V89.2775Z" fill="#ED2224"/>
<path d="M213.883 122.191C218.855 122.191 218.033 130.364 220.969 134.522C223.904 138.68 235.416 136.577 235.416 136.577C241.134 134.665 241.524 129.36 241.956 127.399C242.389 125.438 243.326 124.391 244.188 124.391C245.05 124.391 246.106 123.816 246.106 121.952C246.106 120.088 244.422 120.185 243.012 120.185C241.602 120.185 241.172 119.562 241.172 119.562C238.137 115.858 231.503 116.607 227.509 116.607C223.515 116.607 220.695 117.612 219.757 118.616C219.077 119.323 218.36 119.993 217.608 120.623C216.491 119.261 213.888 119.331 213.888 119.331C213.888 119.331 211.286 119.258 210.168 120.62C209.416 119.991 208.699 119.321 208.02 118.613C207.082 117.609 204.259 116.607 200.268 116.607C196.277 116.607 189.637 115.866 186.605 119.562C186.605 119.562 186.172 120.182 184.765 120.182C183.358 120.182 181.671 120.085 181.671 121.949C181.671 123.813 182.729 124.388 183.589 124.388C184.448 124.388 185.391 125.438 185.821 127.399C186.25 129.36 186.643 134.651 192.358 136.574C192.358 136.574 203.87 138.677 206.806 134.519C209.741 130.362 208.922 122.188 213.894 122.188" fill="#212121"/>
<path d="M197.77 117.793C197.77 117.793 186.632 117.315 186.632 122.09C186.632 126.866 186.006 135.853 197.77 135.853C197.77 135.853 204.603 136.188 206.287 132.987C207.971 129.785 209.615 122.759 207.931 120.704C206.247 118.649 202.449 117.793 197.77 117.793Z" fill="#D2D2D2"/>
<path d="M229.945 117.793C229.945 117.793 241.086 117.315 241.086 122.09C241.086 126.866 241.712 135.853 229.945 135.853C229.945 135.853 223.115 136.188 221.431 132.984C219.747 129.78 218.103 122.759 219.787 120.701C221.471 118.644 225.266 117.793 229.945 117.793Z" fill="#D2D2D2"/>
<path d="M246.744 104.476L182.732 144.389L184.156 146.672L248.167 106.759L246.744 104.476Z" fill="#ED2224"/>
</svg>
