<svg width="86" height="86" viewBox="0 0 86 86" fill="none" xmlns="http://www.w3.org/2000/svg">
<path d="M73.0974 61.2417C66.4863 61.2417 61.1077 66.6283 61.1077 73.2493C61.1077 79.8703 66.4863 85.2566 73.0974 85.2566C79.7086 85.2566 85.0871 79.8703 85.0871 73.2493C85.0871 66.6283 79.7086 61.2417 73.0974 61.2417ZM73.0974 83.1472C67.6493 83.1472 63.2171 78.707 63.2171 73.2493C63.2171 67.7917 67.6493 63.3511 73.0974 63.3511C78.5456 63.3511 82.9777 67.7913 82.9777 73.2493C82.9777 78.7073 78.5452 83.1472 73.0974 83.1472Z" fill="#0F172A"/>
<path d="M3.02246 20.4632V7.83053C3.02246 5.08553 5.24293 2.85205 7.97246 2.85205H20.5457C21.9404 2.85205 21.9421 0.742676 20.5457 0.742676H7.97246C4.07996 0.742676 0.913086 3.92221 0.913086 7.83053V20.4632C0.913086 21.8582 3.02246 21.8596 3.02246 20.4632Z" fill="#0F172A"/>
<path d="M20.5457 67.8413H7.97246C5.24293 67.8413 3.02246 65.6079 3.02246 62.8629V50.2291C3.02246 48.8352 0.913086 48.8324 0.913086 50.2291V62.8629C0.913086 66.7712 4.07996 69.9507 7.97246 69.9507H20.5457C21.9404 69.9507 21.9421 67.8413 20.5457 67.8413Z" fill="#0F172A"/>
<path d="M50.1717 2.8524H62.746C65.4755 2.8524 67.6964 5.08588 67.6964 7.83088V20.4636C67.6964 21.8582 69.8057 21.86 69.8057 20.4636V7.83053C69.8057 3.92221 66.6389 0.742676 62.746 0.742676H50.1717C48.7774 0.743027 48.7756 2.8524 50.1717 2.8524Z" fill="#0F172A"/>
<path d="M56.5042 67.8408H50.1722C48.7775 67.8408 48.7758 69.9502 50.1722 69.9502H56.5042C57.8988 69.9502 57.9006 67.8408 56.5042 67.8408Z" fill="#0F172A"/>
<path d="M67.6963 50.2288V56.6304C67.6963 58.025 69.8057 58.0268 69.8057 56.6304V50.2288C69.8057 48.8345 67.6963 48.832 67.6963 50.2288Z" fill="#0F172A"/>
<path d="M46.6774 48.9888C44.2298 48.9888 42.7349 47.6209 42.2255 44.9262C43.6761 43.5888 44.8977 41.9695 45.8009 40.1625C48.5582 34.657 47.6589 34.4756 48.4063 34.0643L48.4039 34.0597C50.5291 33.0739 49.8168 30.6144 49.9472 30.0589C49.9472 28.8014 49.7156 28.3503 49.0785 27.983C50.046 25.2102 49.8453 21.909 48.4816 18.7534C44.6038 9.7787 32.3498 5.24319 27.9426 13.7106C25.9914 13.5633 23.0974 14.2998 22.1053 17.9789C21.1058 21.6851 21.5899 26.2114 21.8409 27.9678C21.2474 28.4463 20.7718 29.2222 20.7718 30.0698C20.905 30.6366 20.1952 33.0774 22.3148 34.0604L22.3123 34.0653C23.064 34.4774 23.733 40.5351 28.4938 44.9272C27.9844 47.6216 26.4896 48.9892 24.0424 48.9892C14.9327 48.9892 10.5747 54.154 11.0669 60.4818C11.1316 61.9017 13.2849 61.7579 13.1692 60.312C13.12 59.6939 12.9871 56.4891 15.2101 54.0819C16.5319 52.6503 18.455 51.7321 20.9416 51.3316C22.2571 52.8047 26.7631 57.0055 35.3599 57.0055C43.9566 57.0055 48.4629 52.8047 49.7781 51.3316C52.2647 51.7321 54.1874 52.6503 55.5097 54.0819C57.7326 56.4891 57.5993 59.6939 57.5505 60.312C57.4352 61.7579 59.5881 61.9017 59.6528 60.4818C60.1243 54.4226 56.1017 48.9888 46.6774 48.9888ZM24.1419 18.528C24.756 16.2506 26.5726 15.4884 28.3205 15.8959C28.8545 16.0274 29.4002 15.7261 29.5735 15.204C31.762 8.61291 42.7789 10.8717 46.5455 19.5901C47.5236 21.8538 47.8066 24.1798 47.3858 26.2209C46.6615 25.2098 45.6877 23.8609 44.6819 22.5046C42.3577 19.37 38.1889 18.2447 34.7699 19.8285C34.1178 20.1305 33.4066 20.1213 32.8184 19.8035C30.644 18.6289 28.5933 18.5804 26.8879 19.6625C25.4599 20.5706 24.0821 22.8906 24.1535 25.3817C24.1658 25.8166 24.0476 26.2083 23.7949 26.5619C23.5836 24.5651 23.4106 21.2389 24.1419 18.528ZM26.8042 39.2178C23.9664 33.5517 25.1839 33.2342 23.3266 32.2158C23.11 32.0973 22.8808 31.9152 22.8808 31.673C22.8808 29.398 22.7711 29.9246 23.5692 29.4029C23.6015 29.3664 26.3426 28.1658 26.2614 25.322C26.1974 23.0804 27.8652 19.5261 31.8154 21.6598C32.9945 22.2968 34.3945 22.327 35.6562 21.7427C38.1727 20.5773 41.2559 21.426 42.9877 23.761C48.1479 30.7202 46.4186 28.9396 47.8361 29.7084C47.8396 29.868 47.8382 30.2488 47.8382 31.673C47.8382 32.2938 46.33 32.3272 45.95 34.1634C45.7341 35.2244 44.9927 37.0666 43.9148 39.2185C42.8907 41.2668 41.4067 43.04 39.6229 44.3464C38.5179 45.1561 38.2778 45.1536 36.4079 45.1339C32.5076 45.0932 32.5097 45.3821 31.0965 44.3461C29.3126 43.04 27.8287 41.2667 26.8042 39.2178ZM35.3595 54.8958C29.3587 54.8958 25.6276 52.6725 23.7404 51.1028C27.2687 51.0606 29.3678 49.4367 30.3054 46.3633C31.6741 47.2605 32.5108 47.2623 34.3326 47.243C37.8591 47.2057 38.7095 47.4855 40.4132 46.3637C41.3375 49.3924 43.553 51.0978 46.677 51.0978C46.773 51.0978 46.8658 51.101 46.9604 51.1024C45.0588 52.6707 41.3122 54.8958 35.3595 54.8958Z" fill="#0F172A"/>
</svg>
