<svg width="1126" height="2436" viewBox="0 0 1126 2436" fill="none" xmlns="http://www.w3.org/2000/svg">
<path d="M0 0V2436H1126V0H0ZM121.5 810C121.5 750.4 133.17 692.58 156.2 638.15C178.44 585.58 210.27 538.36 250.82 497.81C291.37 457.26 338.58 425.43 391.16 403.19C445.59 380.17 503.41 368.5 563.01 368.5C622.61 368.5 680.43 380.17 734.86 403.19C787.43 425.43 834.65 457.26 875.2 497.81C915.75 538.36 947.58 585.57 969.82 638.15C992.84 692.58 1004.52 750.4 1004.52 810C1004.52 869.6 992.85 927.42 969.82 981.85C947.58 1034.42 915.75 1081.64 875.2 1122.19C834.65 1162.74 787.44 1194.57 734.86 1216.81C680.43 1239.83 622.61 1251.5 563.01 1251.5C503.41 1251.5 445.59 1239.83 391.16 1216.81C338.59 1194.57 291.37 1162.74 250.82 1122.19C210.27 1081.64 178.44 1034.43 156.2 981.85C133.18 927.42 121.5 869.6 121.5 810Z" fill="black" fill-opacity="0.4"/>
</svg>
